<?xml version="1.0" standalone="no"?>
<!DOCTYPE svg PUBLIC "-//W3C//DTD SVG 20010904//EN"
 "http://www.w3.org/TR/2001/REC-SVG-20010904/DTD/svg10.dtd">
<svg version="1.0" xmlns="http://www.w3.org/2000/svg"
 width="1800.000000pt" height="1800.000000pt" viewBox="0 0 1800.000000 1800.000000"
 preserveAspectRatio="xMidYMid meet">
<metadata>
Created by potrace 1.11, written by Peter Selinger 2001-2013
</metadata>
<g transform="translate(0.000000,1800.000000) scale(0.100000,-0.100000)"
fill="#000000" stroke="none">
<path d="M8700 17718 c-215 -21 -315 -28 -416 -28 -97 0 -298 -21 -345 -36
-10 -2 -70 -11 -135 -19 -164 -20 -307 -42 -422 -66 -53 -11 -119 -24 -147
-29 -88 -15 -493 -110 -585 -137 -30 -9 -73 -22 -95 -29 -22 -7 -114 -36 -205
-64 -91 -29 -169 -56 -174 -61 -6 -5 -18 -9 -27 -9 -30 0 -389 -139 -584 -225
-16 -8 -52 -23 -80 -35 -108 -46 -603 -288 -625 -305 -8 -7 -46 -29 -85 -49
-38 -21 -86 -46 -105 -58 -172 -100 -235 -137 -295 -176 -851 -545 -1476
-1094 -2124 -1867 -45 -54 -311 -400 -326 -424 -5 -9 -22 -32 -36 -51 -66 -89
-300 -448 -364 -558 -23 -40 -134 -230 -153 -262 -24 -39 -308 -610 -339 -680
-17 -37 -104 -244 -133 -315 -62 -150 -123 -320 -180 -495 -27 -85 -57 -175
-65 -200 -34 -105 -101 -347 -135 -490 -4 -19 -18 -75 -30 -125 -12 -49 -25
-112 -30 -138 -5 -26 -11 -56 -14 -65 -3 -9 -10 -46 -15 -82 -32 -215 -83
-549 -95 -630 -8 -52 -18 -153 -21 -225 -3 -71 -13 -224 -21 -340 -25 -346
-19 -845 15 -1175 35 -351 51 -475 85 -665 9 -49 23 -133 31 -185 13 -87 26
-152 54 -282 17 -80 100 -410 116 -463 8 -27 25 -86 38 -130 76 -252 81 -270
144 -445 19 -52 38 -106 42 -120 5 -14 13 -36 19 -50 6 -14 32 -79 57 -145 54
-137 69 -173 96 -231 10 -23 19 -44 19 -47 0 -12 154 -341 202 -431 11 -21 47
-91 80 -155 33 -64 63 -123 68 -131 33 -53 100 -172 100 -176 0 -2 12 -23 27
-47 42 -64 47 -72 67 -108 25 -46 190 -303 256 -399 138 -202 370 -507 509
-669 25 -30 64 -75 85 -100 202 -238 607 -642 878 -877 370 -321 808 -638
1218 -881 96 -57 182 -108 190 -113 8 -5 47 -26 85 -46 39 -20 77 -43 86 -50
8 -8 23 -14 32 -14 9 0 18 -4 21 -9 8 -13 534 -271 551 -271 2 0 32 -13 67
-28 35 -16 99 -44 143 -61 44 -18 89 -37 100 -42 11 -4 63 -24 115 -44 137
-52 171 -65 208 -81 18 -8 41 -14 50 -14 10 0 22 -4 28 -9 5 -4 43 -18 84 -31
41 -12 90 -28 108 -36 18 -8 40 -14 48 -14 9 0 30 -6 47 -14 18 -7 52 -18 77
-25 25 -6 68 -19 95 -27 57 -17 135 -39 215 -58 30 -8 111 -28 180 -45 215
-54 311 -72 570 -106 138 -19 265 -39 378 -60 46 -8 100 -15 120 -15 44 0 137
-5 417 -26 334 -24 927 -19 1160 10 72 9 155 16 186 16 31 0 100 7 155 16 54
8 122 17 149 20 28 3 73 9 100 15 28 5 93 16 145 24 140 21 379 64 435 79 11
3 61 15 110 26 179 42 288 70 425 110 199 58 231 67 265 79 17 6 64 22 105 36
41 14 95 32 120 40 108 32 515 192 680 267 284 130 597 289 780 396 19 11 55
32 80 45 71 39 416 258 530 337 215 149 646 477 670 510 3 4 39 35 80 69 246
205 653 613 896 896 188 220 242 287 392 490 78 105 145 195 149 200 11 14
192 288 245 370 80 124 210 347 275 470 21 39 42 79 49 90 76 129 341 698 399
855 7 19 32 85 55 145 53 139 105 282 132 365 12 36 27 79 34 97 8 17 14 38
14 47 0 8 6 33 14 53 13 35 45 143 66 218 4 17 15 55 24 85 8 30 20 75 26 100
6 25 24 99 41 165 50 203 70 307 99 530 14 107 48 320 64 410 8 44 20 175 26
290 6 116 15 260 20 320 5 61 10 248 10 415 0 168 0 337 0 375 0 39 -6 124
-15 190 -8 66 -18 174 -21 240 -3 66 -14 170 -24 230 -10 61 -23 151 -29 200
-6 50 -18 128 -27 175 -8 47 -21 126 -29 175 -18 106 -41 232 -49 260 -3 11
-15 61 -26 110 -12 50 -30 126 -42 170 -11 44 -26 103 -32 130 -7 28 -18 63
-24 78 -7 16 -12 34 -12 41 0 7 -6 32 -14 57 -8 24 -28 91 -46 149 -38 122
-60 188 -107 320 -19 52 -38 106 -42 120 -5 14 -13 36 -19 50 -6 14 -20 50
-32 80 -11 30 -25 64 -29 75 -5 11 -16 40 -26 65 -9 25 -26 63 -36 86 -10 23
-19 44 -19 47 0 5 -14 36 -82 187 -130 285 -314 636 -468 890 -95 158 -155
256 -160 260 -4 3 -31 43 -62 90 -97 146 -174 255 -250 356 -40 53 -82 109
-93 125 -11 15 -38 49 -60 76 -244 298 -249 304 -414 483 -531 577 -1079 1035
-1791 1492 -182 117 -470 279 -720 404 -245 122 -355 172 -705 319 -16 7 -106
41 -200 75 -93 34 -181 66 -195 71 -62 26 -452 145 -600 184 -36 10 -87 23
-115 31 -44 12 -103 26 -270 64 -127 29 -201 42 -435 76 -168 24 -288 42 -388
58 -51 9 -173 20 -270 26 -97 5 -244 15 -325 21 -176 13 -611 17 -717 7z m210
-1043 l5 -500 225 -5 225 -5 0 -115 0 -115 -335 0 -335 0 -3 623 -2 623 107
-3 108 -3 5 -500z m1095 461 c99 -17 279 -43 365 -53 88 -11 97 -28 76 -149
-9 -48 -18 -89 -20 -92 -5 -5 -71 3 -286 33 -148 20 -207 20 -214 -2 -17 -63
-37 -175 -34 -199 3 -31 -6 -28 163 -54 44 -7 125 -18 180 -24 l100 -11 3 -60
c4 -66 -4 -132 -17 -154 -7 -11 -21 -11 -77 -3 -144 23 -330 44 -359 40 -29
-3 -29 -5 -42 -88 -7 -47 -12 -110 -13 -141 l0 -56 70 -7 c105 -11 412 -63
421 -73 10 -10 -12 -216 -24 -224 -5 -3 -27 -3 -50 2 -23 4 -91 15 -152 24
-60 9 -148 22 -195 30 -47 8 -137 20 -200 27 l-115 13 2 55 c1 54 6 93 58 494
40 311 93 675 101 687 8 13 136 5 259 -15z m-2140 -38 c2 -7 9 -49 15 -93 30
-229 42 -321 55 -435 29 -256 58 -456 67 -465 3 -3 40 -1 84 5 282 34 357 40
369 30 14 -11 41 -192 31 -208 -8 -13 -153 -37 -341 -57 -82 -9 -188 -20 -234
-26 -51 -6 -87 -7 -93 -1 -21 21 -65 328 -113 792 -9 85 -23 204 -31 265 -8
60 -14 126 -14 146 l0 36 68 10 c97 15 132 15 137 1z m-784 -199 c73 -39 209
-178 263 -269 86 -144 137 -401 116 -575 -17 -137 -45 -206 -113 -281 -156
-170 -408 -184 -598 -33 -55 43 -123 135 -169 226 -130 261 -146 540 -42 751
73 150 182 210 381 211 97 1 107 -1 162 -30z m4230 -10 c169 -59 243 -165 256
-365 7 -109 -1 -164 -24 -164 -22 0 -156 40 -166 50 -5 4 -10 27 -11 51 -4 58
-42 144 -77 173 -16 14 -53 30 -83 37 -50 11 -59 10 -103 -11 -75 -34 -112
-67 -157 -139 -46 -71 -63 -113 -96 -235 -32 -116 -26 -250 14 -323 31 -57 57
-78 126 -105 88 -35 135 -22 211 59 56 59 82 100 75 118 -3 8 -31 21 -63 30
-89 24 -123 42 -123 64 0 23 50 181 57 181 2 0 46 -11 96 -25 221 -62 268 -76
280 -86 10 -8 -38 -201 -92 -374 -5 -16 -22 -75 -36 -130 -36 -135 -46 -149
-97 -141 -68 11 -78 20 -78 76 0 28 -4 50 -9 50 -5 0 -33 -12 -62 -26 -40 -21
-72 -28 -139 -32 -84 -4 -89 -3 -151 29 -71 38 -166 126 -193 179 -41 81 -49
130 -47 287 2 241 33 358 141 535 47 78 232 235 295 251 11 2 59 5 107 6 66 1
103 -4 149 -20z m882 -340 c31 -13 57 -27 57 -33 0 -28 -27 -102 -82 -226 -74
-168 -70 -158 -108 -260 -34 -90 -63 -157 -86 -202 -8 -14 -14 -31 -14 -36 0
-6 -13 -39 -29 -74 -51 -112 -77 -171 -116 -261 -21 -48 -41 -90 -46 -92 -11
-8 -165 53 -179 70 -9 10 -6 26 10 67 12 29 35 85 50 123 26 65 300 715 320
760 5 11 17 40 28 65 66 160 62 154 106 135 17 -8 57 -24 89 -36z m-6271 -66
c61 -33 137 -100 190 -166 44 -56 47 -74 16 -87 -13 -6 -45 -24 -73 -40 -27
-16 -59 -29 -70 -30 -12 0 -41 20 -65 45 -57 58 -91 75 -150 75 -87 0 -169
-55 -191 -129 -18 -61 -22 -165 -9 -222 28 -122 173 -355 253 -408 57 -36 106
-50 141 -39 17 5 47 14 66 18 44 11 105 75 118 124 8 28 6 54 -9 116 -10 44
-16 85 -14 92 3 7 44 32 91 55 83 40 86 41 104 23 26 -26 35 -93 35 -245 -1
-171 -15 -215 -105 -306 -88 -89 -154 -112 -303 -107 -92 3 -108 6 -168 36
-84 42 -161 111 -233 206 -31 41 -56 78 -56 81 0 4 -9 18 -19 31 -26 33 -77
167 -107 282 -39 151 -29 327 25 412 27 44 90 112 129 141 71 52 127 68 245
68 98 1 111 -1 159 -26z m7004 -288 c27 -14 53 -25 59 -25 5 0 24 -14 42 -32
34 -32 41 -64 24 -97 -6 -10 -19 -65 -31 -122 -11 -57 -27 -131 -35 -164 -46
-201 -78 -337 -90 -387 -38 -147 -47 -183 -84 -337 -22 -90 -45 -169 -50 -174
-15 -15 -161 64 -180 96 -14 22 -12 32 13 103 34 96 43 166 24 181 -7 6 -53
32 -103 58 -49 26 -109 58 -132 72 l-42 24 -68 -62 c-37 -34 -85 -79 -105
-100 -42 -43 -50 -46 -68 -24 -7 8 -17 15 -22 15 -22 0 -128 72 -128 87 0 9
115 129 257 267 141 138 344 339 452 447 108 108 201 197 207 198 6 0 33 -10
60 -24z m638 -382 c39 -26 76 -51 81 -55 13 -11 101 -75 303 -222 150 -109
163 -121 157 -144 -7 -28 -112 -172 -126 -172 -4 0 -43 26 -86 58 -97 72 -129
92 -145 92 -7 0 -31 -26 -52 -58 -22 -31 -81 -113 -131 -182 -132 -180 -271
-372 -340 -472 -33 -48 -68 -90 -77 -93 -23 -8 -156 83 -164 112 -6 22 5 40
119 206 45 64 95 133 342 464 58 77 107 147 110 155 3 9 -33 42 -100 92 -58
43 -105 84 -105 90 0 7 24 49 53 94 34 54 58 82 71 82 10 0 50 -21 90 -47z
m-9147 -198 c64 -32 173 -129 173 -154 -1 -17 -120 -110 -151 -118 -11 -3 -34
8 -58 26 -57 45 -90 55 -141 41 -24 -6 -56 -21 -72 -33 -34 -25 -68 -85 -68
-120 0 -34 26 -83 58 -108 23 -18 37 -21 97 -17 39 3 79 10 90 16 144 81 329
106 433 57 161 -75 259 -265 232 -452 -26 -189 -204 -322 -435 -327 -74 -1
-86 2 -145 33 -98 52 -170 118 -170 155 0 24 6 29 136 128 8 6 24 -2 45 -22
129 -119 306 -81 358 78 19 57 -4 119 -59 157 -59 41 -124 31 -345 -49 -99
-36 -206 -36 -277 0 -68 34 -149 119 -182 188 -54 114 -58 215 -13 316 89 198
316 291 494 205z m5003 -121 c91 -8 224 -19 295 -24 154 -11 213 -19 380 -55
17 -4 109 -22 205 -41 179 -35 413 -92 605 -148 57 -17 309 -100 346 -114 34
-14 90 -36 199 -78 52 -20 99 -40 104 -45 6 -5 15 -9 22 -9 26 0 525 -243 592
-287 18 -13 35 -23 38 -23 10 0 298 -177 398 -245 84 -56 184 -127 326 -231
32 -23 248 -198 295 -239 17 -14 52 -45 80 -68 287 -245 703 -701 953 -1045 9
-13 38 -52 63 -85 65 -89 211 -312 284 -435 106 -181 150 -262 242 -447 85
-171 96 -195 148 -320 8 -19 21 -50 29 -67 8 -18 29 -71 46 -118 18 -47 38
-102 46 -122 36 -98 63 -175 74 -213 5 -16 16 -52 24 -80 38 -125 59 -199 90
-320 49 -189 56 -223 116 -540 13 -65 46 -313 60 -440 36 -345 41 -719 15
-1040 -21 -253 -22 -264 -30 -415 -3 -69 -10 -141 -15 -160 -5 -19 -16 -78
-26 -130 -9 -52 -22 -115 -30 -140 -7 -25 -16 -74 -20 -110 -3 -35 -10 -71
-15 -80 -5 -8 -27 -85 -49 -170 -22 -85 -49 -186 -60 -225 -12 -38 -25 -83
-29 -100 -4 -16 -13 -46 -19 -65 -7 -19 -21 -62 -32 -95 -10 -33 -29 -85 -40
-115 -12 -30 -24 -64 -27 -75 -7 -30 -110 -285 -155 -385 -240 -534 -502 -966
-858 -1415 -224 -283 -610 -684 -839 -870 -13 -11 -38 -32 -55 -46 -65 -54
-257 -205 -303 -239 -26 -19 -52 -38 -58 -43 -147 -112 -506 -339 -700 -441
-38 -20 -79 -42 -90 -48 -11 -6 -27 -15 -35 -19 -59 -33 -365 -179 -374 -179
-2 0 -33 -13 -68 -28 -35 -16 -81 -36 -103 -44 -22 -9 -74 -30 -115 -46 -41
-17 -109 -43 -150 -57 -199 -69 -257 -88 -285 -96 -16 -4 -61 -18 -100 -29
-184 -56 -488 -129 -710 -170 -27 -5 -79 -12 -115 -15 -36 -4 -92 -13 -125
-20 -33 -8 -91 -16 -130 -19 -38 -2 -104 -7 -145 -11 -506 -40 -705 -42 -1030
-9 -80 8 -210 19 -290 24 -80 5 -201 20 -270 34 -69 14 -186 37 -260 51 -74
14 -164 32 -200 41 -36 8 -85 19 -110 24 -25 5 -67 16 -95 24 -27 8 -77 22
-110 31 -33 9 -71 20 -85 25 -14 5 -59 18 -100 30 -41 12 -91 27 -110 34 -19
8 -64 24 -100 36 -67 23 -95 34 -190 70 -30 12 -66 25 -80 29 -14 5 -51 20
-81 35 -31 14 -59 26 -62 26 -21 0 -529 250 -584 288 -19 12 -36 22 -39 22 -2
0 -64 36 -137 80 -168 102 -163 99 -217 136 -25 17 -74 50 -110 75 -549 371
-1100 898 -1540 1473 -131 171 -383 547 -427 636 -4 8 -20 38 -36 65 -49 82
-84 148 -168 318 -78 157 -93 189 -124 259 -70 164 -69 160 -105 258 -18 47
-36 94 -41 105 -12 29 -39 105 -49 140 -11 40 -29 92 -46 133 -8 18 -14 42
-14 53 0 11 -5 29 -11 40 -11 22 -25 71 -84 299 -40 154 -95 420 -120 585 -7
50 -18 117 -24 150 -5 33 -13 92 -15 130 -3 39 -10 129 -16 200 -31 420 -31
642 1 960 5 55 11 143 13 195 9 216 47 505 81 610 8 25 19 77 24 115 5 39 17
97 26 130 9 33 23 85 30 115 34 140 104 379 131 454 9 23 19 55 24 71 4 17 18
55 30 85 12 30 25 66 30 80 5 14 18 50 30 80 12 30 25 66 29 80 5 14 20 51 35
81 14 31 26 59 26 62 0 9 50 119 111 243 27 55 49 106 49 112 0 5 3 12 8 14 4
2 31 50 61 108 30 58 66 125 81 150 14 25 29 52 33 60 4 8 20 35 35 60 15 25
36 60 47 79 128 217 421 617 619 846 122 139 153 173 331 350 418 417 932 805
1410 1065 44 24 94 52 110 62 17 10 37 20 45 24 8 3 22 9 30 14 30 17 239 120
244 120 3 0 49 20 102 45 53 25 100 45 104 45 5 0 21 7 37 15 15 8 44 21 63
28 58 23 123 48 163 63 20 8 54 20 75 28 20 8 55 21 77 29 22 8 69 24 105 36
36 11 79 25 95 30 47 16 205 63 260 76 28 7 86 22 130 33 236 61 410 96 580
117 28 3 84 13 125 21 41 8 111 17 155 19 44 3 130 9 190 14 61 5 164 10 230
11 66 1 129 6 140 11 25 11 338 2 555 -17z m5021 -358 c24 -18 78 -69 119
-112 42 -44 135 -136 208 -207 73 -70 132 -134 132 -142 0 -16 -115 -151 -137
-159 -10 -4 -53 31 -132 107 -145 141 -231 217 -245 217 -17 0 -166 -153 -166
-171 0 -9 67 -81 150 -159 82 -78 152 -151 156 -162 5 -16 -9 -35 -62 -89 -38
-38 -74 -69 -80 -69 -11 0 -101 82 -245 225 -41 41 -82 75 -90 75 -8 0 -50
-41 -93 -90 -44 -50 -83 -90 -88 -90 -36 0 86 -137 272 -304 73 -66 75 -70 48
-110 -25 -36 -120 -126 -135 -126 -4 0 -19 10 -33 23 -14 12 -63 56 -110 97
-141 123 -159 141 -272 255 -59 60 -108 116 -108 123 0 11 97 118 210 231 20
20 140 146 267 281 353 375 367 390 379 390 6 0 31 -15 55 -34z m-10882 -184
c137 -139 226 -236 260 -279 l33 -43 -32 -40 c-17 -22 -43 -43 -58 -47 -22 -5
-32 1 -76 53 -28 32 -111 121 -184 196 l-133 137 15 29 c18 35 62 72 84 72 9
0 50 -35 91 -78z m-451 -354 c61 -53 166 -142 222 -187 23 -19 48 -40 54 -46
6 -5 36 -30 66 -55 30 -25 57 -47 60 -50 3 -3 34 -30 70 -60 68 -58 179 -154
294 -255 38 -33 82 -71 97 -84 16 -13 29 -30 29 -38 0 -22 -111 -153 -129
-153 -12 0 -205 155 -320 258 l-84 75 -56 -59 c-86 -91 -175 -194 -185 -215
-12 -26 -2 -36 196 -196 170 -136 195 -162 181 -187 -18 -31 -121 -136 -133
-136 -7 0 -51 32 -99 72 -85 72 -411 356 -421 368 -10 12 -287 248 -357 304
-40 32 -73 62 -73 66 0 22 118 160 137 160 16 0 122 -86 253 -204 52 -47 102
-85 111 -83 19 2 239 256 239 274 0 6 -39 44 -87 84 -49 39 -121 101 -162 138
-40 36 -78 68 -82 69 -18 7 -8 35 28 80 52 66 85 102 95 102 4 0 29 -19 56
-42z m12479 -723 c29 -38 53 -75 53 -81 0 -11 -148 -124 -471 -359 -83 -60
-234 -172 -335 -247 -101 -76 -190 -138 -197 -138 -17 0 -117 135 -117 159 0
11 11 28 24 38 14 10 87 63 162 118 267 194 648 482 724 547 67 57 91 51 157
-37z m-13115 -311 c256 -97 368 -218 369 -399 1 -81 -19 -129 -105 -260 -25
-38 -46 -79 -46 -92 0 -17 20 -34 95 -80 109 -66 120 -72 195 -117 59 -34 69
-54 49 -95 -30 -60 -82 -131 -96 -131 -16 0 -119 55 -144 76 -8 8 -18 14 -22
14 -8 0 -124 75 -367 235 -219 145 -378 247 -455 293 -35 21 -55 40 -55 52 0
25 21 63 105 189 39 58 81 128 95 154 31 61 113 137 171 159 57 21 157 22 211
2z m13430 -131 c23 -26 88 -149 88 -167 0 -8 -53 -90 -118 -183 -64 -92 -157
-229 -206 -303 -49 -74 -101 -154 -117 -177 -28 -40 -36 -63 -23 -63 5 0 125
62 219 114 20 11 82 49 120 73 11 7 51 30 88 50 38 21 105 60 149 86 45 26 87
46 94 43 14 -5 64 -79 64 -95 0 -5 7 -14 15 -21 38 -31 0 -71 -144 -148 -24
-13 -58 -32 -75 -43 -17 -10 -57 -32 -89 -49 -32 -16 -99 -55 -150 -86 -243
-149 -423 -257 -442 -265 -11 -5 -47 -25 -80 -44 -71 -41 -78 -42 -104 -13
-29 31 -91 136 -91 155 0 8 14 32 30 53 17 21 30 41 30 44 0 3 27 43 60 88
195 271 362 526 354 539 -4 7 -99 -39 -186 -90 -52 -31 -253 -146 -288 -164
-19 -11 -42 -25 -51 -33 -8 -8 -19 -14 -23 -14 -4 0 -31 -16 -61 -35 -30 -19
-61 -32 -69 -29 -8 3 -22 22 -32 42 -9 20 -28 53 -41 73 -27 41 -23 63 15 78
15 6 41 20 57 31 17 11 39 24 50 30 11 5 27 14 35 20 38 25 372 220 377 220 4
0 14 6 22 14 9 7 43 28 76 46 73 40 362 207 390 226 27 18 39 17 57 -3z
m-14156 -768 c30 -14 67 -28 83 -31 17 -4 37 -15 47 -25 15 -17 14 -22 -13
-81 -17 -35 -38 -83 -48 -108 -10 -25 -24 -59 -31 -77 -8 -17 -14 -34 -14 -38
0 -3 -16 -40 -36 -81 -42 -85 -40 -92 35 -126 25 -11 67 -31 93 -43 l47 -23
18 22 c22 24 50 83 124 256 29 69 57 128 63 132 9 6 20 2 109 -36 21 -9 44
-16 51 -16 8 0 19 -7 27 -16 18 -22 12 -38 -110 -297 -28 -59 -51 -113 -51
-119 0 -15 30 -48 43 -48 5 0 54 -20 109 -45 54 -25 102 -44 107 -41 7 4 23
39 51 111 5 11 38 82 74 159 36 76 66 142 66 147 0 5 9 18 20 29 19 19 20 19
114 -28 52 -26 97 -53 100 -59 7 -18 -45 -143 -144 -343 -47 -96 -101 -208
-120 -247 -18 -40 -37 -73 -41 -73 -4 0 -52 21 -106 46 -54 25 -138 63 -188
84 -49 21 -103 46 -120 54 -16 9 -34 16 -38 16 -8 0 -66 25 -162 70 -22 10
-60 27 -85 38 -58 25 -147 66 -230 104 -36 17 -93 43 -128 59 -34 16 -65 35
-68 43 -6 17 106 285 146 346 5 8 32 74 61 145 45 115 71 165 87 165 3 0 29
-11 58 -25z m14718 -420 c66 -40 134 -114 167 -181 27 -54 32 -77 36 -168 6
-101 5 -107 -22 -161 -16 -30 -52 -78 -81 -105 -58 -55 -152 -104 -170 -89
-13 10 -53 130 -57 169 -1 18 5 28 26 38 72 35 101 146 59 228 -27 53 -49 71
-97 78 -65 9 -106 -5 -129 -44 -20 -33 -21 -50 -21 -260 0 -259 -3 -270 -93
-351 -102 -92 -241 -136 -370 -118 -89 13 -166 64 -234 157 -62 84 -81 148
-82 272 -1 101 0 107 33 167 44 82 113 154 180 188 l54 27 27 -29 c15 -15 37
-54 49 -86 19 -51 19 -60 6 -80 -8 -12 -30 -31 -50 -41 -53 -29 -79 -77 -79
-150 -1 -96 57 -192 129 -216 48 -16 116 16 152 71 l28 43 0 205 c0 237 6 265
70 338 73 83 179 121 335 122 83 0 100 -3 134 -24z m-14911 -686 c21 -5 41
-17 44 -25 3 -8 -8 -51 -24 -96 l-29 -83 -55 -6 c-112 -12 -183 -79 -183 -174
-1 -65 21 -100 85 -134 78 -42 95 -28 242 188 73 107 99 135 162 176 219 140
553 -12 593 -270 11 -68 -1 -183 -24 -227 -8 -15 -14 -31 -14 -37 0 -13 -73
-122 -96 -143 -11 -9 -55 -34 -99 -55 -75 -36 -85 -38 -175 -38 -76 0 -102 4
-124 18 -21 14 -27 24 -22 40 3 12 10 47 17 77 16 77 25 84 113 85 63 2 82 6
115 28 64 43 117 185 91 246 -16 40 -61 77 -110 92 -34 10 -44 9 -82 -11 -61
-31 -80 -52 -152 -160 -72 -107 -155 -192 -218 -220 -111 -50 -328 0 -427 99
-66 66 -84 112 -89 221 -3 78 0 106 18 159 27 80 91 176 131 197 108 55 230
76 312 53z m15325 -264 c7 -27 19 -77 27 -110 8 -33 23 -96 33 -140 88 -369
104 -447 95 -456 -6 -6 -53 -21 -104 -34 -96 -23 -119 -21 -119 12 0 13 -17
78 -52 196 -12 41 -32 46 -98 27 -34 -11 -212 -57 -616 -160 -215 -55 -288
-68 -298 -51 -4 6 -14 50 -22 98 -14 79 -14 88 0 99 16 11 115 38 271 74 50
11 108 25 130 30 44 10 246 56 310 70 87 19 198 50 223 63 24 11 27 18 24 57
-2 24 -13 81 -26 126 -14 51 -20 88 -14 97 4 8 27 18 50 22 22 4 55 13 72 21
17 8 47 13 66 11 33 -2 36 -5 48 -52z m-15288 -820 c112 -16 226 -47 283 -77
87 -44 186 -136 241 -223 74 -118 56 -335 -38 -460 -37 -48 -46 -56 -111 -99
-74 -47 -126 -65 -258 -83 -112 -16 -128 -16 -264 1 -152 18 -162 21 -313 95
-70 34 -111 63 -162 112 -91 89 -110 133 -116 272 -4 112 -2 126 47 225 21 45
105 132 160 166 121 77 316 103 531 71z m15507 -246 c19 -39 32 -151 21 -171
-5 -11 -21 -18 -41 -18 -56 -1 -397 -48 -537 -74 -74 -14 -164 -28 -200 -31
-113 -10 -232 -26 -312 -41 -43 -8 -94 -14 -115 -12 -42 3 -48 15 -59 129 -8
81 -5 84 106 93 41 3 138 15 215 26 77 12 174 25 215 30 41 5 136 19 210 30
74 11 200 30 280 41 80 11 147 23 149 25 14 14 57 -4 68 -27z m70 -521 c6 -8
11 -107 11 -233 1 -121 7 -289 13 -374 9 -128 9 -155 -2 -162 -8 -5 -57 -9
-110 -9 -74 0 -100 4 -109 15 -8 10 -12 50 -11 122 0 59 -2 115 -5 125 -5 16
-19 17 -177 12 -323 -10 -382 -12 -611 -24 -188 -9 -231 -9 -237 2 -11 17 -11
179 0 196 6 10 91 16 362 24 602 18 633 19 648 31 10 8 11 26 7 67 -17 139
-18 190 -6 205 16 20 212 22 227 3z m-15406 -489 c241 -31 339 -119 339 -306
0 -167 -93 -273 -280 -319 -59 -14 -196 -19 -203 -6 -3 4 -6 45 -8 92 l-4 85
67 7 c92 9 133 24 163 59 54 64 23 147 -63 170 -51 14 -514 17 -799 5 -120 -5
-153 -3 -153 6 -5 112 0 192 12 199 7 5 190 9 407 8 216 0 396 2 399 5 8 8 27
7 123 -5z m14763 -574 c94 -9 178 -18 186 -21 15 -7 154 -19 341 -32 128 -8
155 -23 144 -82 -3 -19 -9 -60 -13 -90 l-7 -55 -85 1 c-47 0 -110 4 -140 8
-171 24 -441 53 -545 59 -49 3 -94 6 -100 7 -56 12 -145 -33 -180 -92 -28 -48
-28 -166 1 -205 56 -76 129 -99 345 -113 75 -5 153 -13 175 -19 21 -5 84 -12
139 -15 133 -8 316 -25 327 -32 9 -6 9 -133 -1 -179 -5 -25 -11 -31 -41 -34
-19 -1 -71 2 -115 9 -44 6 -136 15 -205 20 -69 5 -141 11 -160 14 -54 8 -201
27 -240 31 -19 2 -63 6 -97 10 -63 6 -141 29 -200 59 -47 25 -124 106 -156
165 -39 70 -49 215 -22 306 53 183 149 260 355 284 109 12 107 12 294 -4z
m-14367 -737 c14 -18 26 -195 14 -202 -9 -6 -201 -35 -232 -36 -12 0 -21 18
-33 65 -19 77 -21 129 -3 143 7 6 57 17 112 25 131 19 131 19 142 5z m14781
-488 c95 -24 105 -33 97 -84 -6 -39 -41 -176 -70 -276 -37 -125 -94 -339 -99
-372 -8 -44 -32 -72 -55 -62 -9 3 -45 13 -81 20 -113 25 -120 31 -96 87 7 18
16 50 20 72 4 22 15 62 23 88 11 32 12 52 6 58 -10 10 -99 36 -223 64 -36 8
-93 21 -127 30 -35 8 -89 21 -120 29 -32 7 -121 30 -198 51 -77 20 -153 40
-170 45 -92 23 -145 43 -145 53 0 26 44 182 53 188 5 4 30 0 56 -7 51 -15 289
-75 536 -136 88 -21 211 -52 272 -67 81 -20 115 -25 122 -17 5 6 21 63 36 126
31 128 39 144 69 135 12 -3 54 -14 94 -25z m-15724 -72 c8 -29 22 -86 32 -126
9 -41 23 -76 30 -79 15 -5 212 43 559 136 138 38 286 76 329 86 l80 18 17 -22
c10 -12 21 -43 24 -69 4 -26 11 -60 16 -76 6 -18 6 -33 0 -39 -9 -9 -135 -45
-261 -74 -109 -25 -170 -40 -290 -71 -371 -96 -420 -111 -420 -131 0 -9 12
-61 25 -116 30 -122 30 -131 5 -145 -36 -19 -142 -50 -171 -50 -37 0 -47 23
-88 195 -17 72 -53 223 -81 338 -27 114 -50 212 -50 217 0 21 120 57 197 59
31 1 33 -2 47 -51z m14491 -650 c189 -71 522 -207 900 -367 11 -5 34 -14 50
-20 17 -7 40 -19 52 -26 l21 -14 -28 -78 c-15 -43 -31 -87 -35 -98 -7 -20 -71
-178 -115 -285 -12 -30 -34 -86 -48 -123 -14 -38 -30 -71 -36 -73 -16 -6 -188
70 -199 88 -7 10 -1 38 18 89 32 85 122 306 136 331 16 31 10 45 -23 58 -18 6
-51 20 -73 30 -77 35 -115 45 -131 35 -9 -6 -24 -35 -35 -65 -18 -51 -64 -166
-95 -235 -7 -16 -17 -43 -22 -59 -14 -49 -31 -52 -113 -21 -124 47 -122 41
-59 197 29 73 67 162 83 197 38 79 35 87 -53 125 -68 29 -163 57 -183 54 -23
-3 -49 -60 -122 -263 -52 -147 -70 -191 -82 -198 -5 -3 -27 3 -49 13 -21 10
-57 26 -79 35 -65 26 -70 31 -69 61 1 16 18 74 39 129 20 55 42 117 48 137 7
20 16 40 20 44 4 4 7 14 7 23 0 9 7 29 15 45 8 15 15 33 15 38 0 5 9 30 21 56
64 145 84 182 98 182 8 0 65 -19 126 -42z m-13385 -39 c108 -25 220 -111 270
-208 43 -85 55 -293 20 -369 -24 -52 -108 -138 -183 -186 -84 -54 -88 -52
-125 57 -18 51 -32 96 -32 99 0 4 22 19 49 34 40 21 54 36 70 75 25 58 27 114
4 171 -20 54 -47 84 -95 109 -51 26 -86 23 -133 -9 -62 -43 -70 -76 -67 -286
2 -237 -14 -301 -98 -372 -88 -76 -196 -111 -312 -101 -105 9 -144 25 -209 84
-86 80 -128 189 -129 333 0 54 5 74 29 116 41 71 120 154 174 184 45 23 47 23
66 6 25 -22 74 -146 69 -172 -2 -10 -15 -25 -30 -32 -37 -17 -63 -57 -77 -118
-11 -47 -10 -56 9 -98 31 -64 71 -91 137 -90 46 0 58 4 87 33 46 45 52 93 31
268 -15 129 -15 144 -1 194 44 146 150 245 296 274 81 16 123 17 180 4z
m12949 -1680 c84 -15 126 -36 176 -90 74 -80 104 -133 126 -226 34 -143 18
-234 -62 -340 -84 -112 -209 -175 -353 -177 -115 -1 -207 39 -292 127 -68 70
-85 99 -108 176 -52 178 13 365 165 477 79 58 207 77 348 53z m-12277 -42 c66
-32 161 -115 186 -161 55 -105 72 -251 36 -332 -38 -87 -51 -108 -104 -161
-69 -70 -124 -97 -224 -113 -168 -28 -307 33 -398 172 -40 60 -78 177 -78 236
0 60 37 168 77 223 36 50 86 90 178 141 48 27 55 28 160 26 97 -3 117 -7 167
-31z m1391 -1109 c59 -42 231 -182 315 -256 112 -100 137 -145 137 -243 0 -70
-3 -80 -43 -146 -23 -39 -64 -91 -92 -116 -46 -42 -54 -45 -115 -49 -43 -3
-71 -10 -82 -20 -15 -16 -15 -19 2 -44 14 -22 16 -39 11 -88 -11 -110 -47
-178 -144 -267 -88 -82 -139 -104 -237 -103 -68 0 -88 4 -135 29 -78 40 -113
65 -178 127 -31 30 -101 89 -154 131 -98 77 -114 101 -84 126 8 7 60 71 116
144 109 142 182 234 272 343 110 134 230 280 300 367 39 48 73 87 75 87 2 0
18 -10 36 -22z m9174 -149 c29 -123 49 -218 103 -494 41 -213 64 -281 112
-338 25 -29 60 -74 78 -102 19 -27 60 -85 92 -127 32 -42 58 -83 58 -91 0 -13
-124 -111 -155 -123 -7 -3 -22 11 -33 30 -12 20 -25 36 -30 36 -10 0 -96 111
-155 201 -50 75 -133 152 -193 179 -76 33 -177 86 -317 168 -12 7 -85 45 -161
85 -77 41 -141 78 -143 84 -5 13 163 143 184 143 10 -1 36 -12 58 -25 22 -14
47 -28 55 -32 32 -15 306 -166 317 -175 24 -20 25 20 3 124 -13 57 -28 135
-36 174 -7 39 -19 99 -28 135 -8 35 -11 69 -8 75 11 20 166 134 176 131 5 -2
16 -28 23 -58z m-8343 -484 c34 -19 72 -43 86 -54 l25 -20 -28 -53 c-15 -29
-46 -82 -69 -118 -37 -58 -194 -334 -255 -448 -88 -165 -95 -181 -95 -243 -1
-57 1 -63 38 -100 111 -115 227 -102 320 37 21 32 41 63 44 69 3 5 25 42 50
80 25 39 61 97 80 130 18 33 43 78 56 100 23 41 143 248 173 298 28 47 46 46
146 -12 63 -37 74 -54 56 -83 -11 -17 -49 -83 -121 -208 -5 -8 -38 -65 -74
-126 -36 -62 -66 -117 -66 -123 0 -6 -4 -11 -8 -11 -5 0 -16 -15 -25 -32 -9
-18 -27 -50 -39 -70 -13 -20 -43 -69 -67 -110 -55 -90 -116 -156 -190 -205
l-56 -38 -120 1 c-107 0 -126 3 -175 26 -116 54 -204 140 -235 228 -51 144
-19 290 111 500 25 41 62 104 82 140 20 36 52 90 71 120 46 71 59 92 67 110 4
8 13 22 20 30 7 8 34 56 59 105 47 90 63 115 73 115 3 0 33 -16 66 -35z m9199
-152 c72 -76 86 -96 78 -111 -14 -27 -131 -132 -147 -132 -7 0 -32 23 -56 51
-24 28 -60 70 -80 92 -34 38 -49 77 -30 77 4 0 36 27 71 60 35 34 67 59 71 58
3 -2 45 -45 93 -95z m-2008 -459 c77 -154 153 -309 169 -345 31 -68 105 -235
137 -309 11 -25 24 -54 29 -65 55 -125 56 -136 9 -150 -11 -4 -43 -22 -72 -41
-66 -43 -99 -44 -129 -3 -13 17 -45 47 -73 67 -42 30 -277 224 -311 257 -50
49 -217 185 -226 185 -17 0 -7 -42 26 -112 18 -40 48 -103 65 -140 73 -160 96
-209 148 -317 30 -62 53 -120 51 -128 -3 -15 -33 -34 -118 -73 l-45 -20 -20
25 c-11 13 -29 46 -39 72 -18 45 -67 149 -188 403 -48 101 -138 295 -179 390
-43 97 -51 116 -64 145 -48 113 -47 120 8 144 23 10 63 28 89 40 55 25 64 26
75 8 4 -7 44 -44 88 -82 44 -37 114 -98 155 -135 156 -140 392 -330 410 -330
16 0 12 18 -14 63 -13 23 -27 53 -31 67 -4 14 -32 77 -63 140 -188 395 -205
436 -196 452 8 12 81 48 97 48 8 0 20 7 27 15 7 9 20 15 29 13 10 -2 70 -112
156 -284z m-6215 86 c61 -23 90 -35 135 -55 17 -8 55 -24 85 -36 30 -12 78
-31 105 -44 28 -12 61 -26 74 -30 56 -17 106 -51 109 -73 4 -24 -73 -192 -87
-192 -8 0 -57 19 -156 61 -11 4 -69 29 -129 54 -60 25 -115 44 -121 42 -14 -6
-58 -95 -89 -179 l-24 -68 25 -20 c14 -11 30 -20 35 -20 6 0 24 -6 41 -14 18
-7 57 -23 87 -35 157 -62 170 -69 170 -89 0 -10 -18 -55 -40 -101 -40 -83 -40
-83 -73 -77 -18 3 -87 33 -152 66 -142 71 -166 77 -187 53 -17 -20 -162 -362
-172 -406 -11 -47 -24 -46 -171 7 -60 21 -59 32 11 184 13 28 33 80 45 115 11
34 32 87 46 117 14 30 36 84 49 119 14 36 28 69 32 75 5 6 17 34 27 61 9 28
33 83 51 123 19 41 34 79 34 86 0 7 4 16 8 21 4 6 18 37 31 70 35 92 50 127
66 158 8 16 15 35 15 42 0 17 20 24 45 14 11 -4 45 -17 75 -29z m820 -305
c105 -26 295 -75 345 -90 28 -8 79 -24 115 -34 l65 -19 -1 -48 c-1 -67 -31
-162 -55 -174 -13 -8 -32 -7 -62 0 -77 20 -152 42 -177 52 -14 6 -58 19 -99
29 -68 17 -76 18 -92 3 -24 -22 -74 -231 -60 -248 6 -7 37 -18 68 -25 32 -7
69 -17 83 -21 14 -5 61 -18 105 -30 44 -12 86 -24 93 -26 6 -2 12 -16 11 -31
0 -39 -33 -161 -46 -174 -11 -11 -88 3 -205 37 -26 8 -57 14 -70 14 -14 0 -33
7 -44 15 -27 20 -61 19 -73 -4 -13 -23 -53 -161 -92 -311 -16 -63 -32 -123
-35 -132 -7 -25 -57 -23 -144 4 -81 25 -82 28 -50 131 11 36 24 85 29 109 6
24 23 93 40 153 16 61 37 135 45 165 8 30 24 91 36 135 12 44 26 94 30 110 4
17 18 66 30 110 12 44 26 94 30 110 29 112 53 191 62 202 11 13 16 12 118 -12z
m6238 -211 c72 -109 72 -112 -12 -168 -85 -56 -101 -60 -122 -28 -47 70 -114
187 -114 198 0 12 71 74 84 74 4 0 24 11 44 25 33 23 38 24 47 9 6 -9 38 -59
73 -110z m-3072 -8 c66 -31 184 -142 228 -215 32 -53 78 -178 106 -286 7 -27
15 -112 18 -187 4 -109 1 -153 -13 -215 -51 -225 -205 -365 -425 -388 -122
-13 -278 62 -363 173 -104 139 -162 335 -161 552 0 108 5 153 23 223 41 159
128 274 254 336 58 29 69 31 172 31 95 0 117 -3 161 -24z m-2089 -12 c23 -3
52 -15 66 -28 22 -21 24 -29 24 -117 0 -52 7 -137 16 -189 9 -52 23 -144 32
-205 9 -60 23 -148 30 -195 16 -92 48 -330 65 -475 5 -50 6 -93 1 -98 -5 -5
-32 -2 -62 7 -29 9 -70 16 -91 16 -30 0 -40 5 -48 23 -10 25 -39 184 -42 237
-3 32 -6 35 -43 41 -22 4 -76 10 -120 13 -44 3 -105 9 -136 12 l-56 6 -48
-114 c-26 -62 -52 -119 -57 -125 -13 -16 -71 -16 -155 -2 -68 12 -77 24 -48
67 9 12 33 68 54 125 22 57 50 122 63 143 20 33 49 97 107 239 5 11 38 83 74
160 36 77 77 165 90 195 14 30 41 90 61 133 20 42 36 83 36 90 0 7 7 23 16 35
16 23 26 24 171 6z m767 -60 c14 -5 16 -59 16 -501 0 -322 4 -501 10 -514 10
-18 23 -19 224 -18 118 1 219 -2 225 -5 13 -8 15 -194 3 -214 -7 -9 -82 -12
-343 -10 l-334 3 -3 623 -2 623 22 9 c26 10 158 13 182 4z m2226 -729 c19 -23
63 -200 80 -323 9 -69 8 -76 -16 -124 -28 -55 -96 -128 -120 -128 -16 0 -44
50 -44 81 0 12 14 44 31 70 24 38 30 56 27 91 l-3 43 -49 0 -49 0 -13 55 c-7
30 -22 80 -34 110 -27 73 -26 88 8 96 15 4 52 15 82 25 67 22 84 23 100 4z"/>
<path d="M6835 16691 c-48 -22 -99 -72 -128 -126 -19 -34 -22 -54 -20 -134 2
-91 25 -244 42 -286 52 -128 98 -191 177 -246 92 -63 250 -24 301 75 78 151
48 370 -81 590 -48 80 -88 110 -178 131 -74 17 -64 18 -113 -4z"/>
<path d="M12754 15843 c-15 -21 -82 -93 -148 -161 -88 -90 -117 -125 -109
-133 14 -14 38 -28 122 -69 74 -36 83 -33 99 40 9 40 71 278 88 338 10 36 -20
27 -52 -15z"/>
<path d="M8563 14743 c-25 -10 -12 -29 32 -51 l45 -22 0 -354 c-1 -386 -1
-381 -60 -406 -36 -15 -41 -47 -7 -55 12 -3 65 -5 117 -3 93 3 95 3 95 27 0
19 -7 27 -31 33 -18 4 -35 16 -39 25 -5 14 -7 315 -5 613 0 31 37 -25 59 -90
12 -36 29 -78 36 -95 8 -16 28 -70 45 -120 18 -49 37 -103 45 -120 22 -53 44
-119 47 -144 4 -31 32 -50 55 -35 9 5 28 44 43 85 15 41 37 97 49 124 44 97
53 121 77 190 53 158 63 177 79 138 10 -27 6 -533 -5 -554 -6 -10 -20 -19 -32
-21 -17 -2 -23 -10 -23 -28 l0 -25 125 -3 c151 -3 172 1 168 31 -2 14 -11 23
-25 25 -47 7 -48 13 -51 392 l-4 357 24 15 c13 9 33 17 43 20 14 2 20 11 20
28 0 25 -1 25 -97 28 -57 2 -106 -2 -118 -8 -19 -10 -40 -50 -60 -110 -5 -14
-18 -50 -30 -80 -11 -30 -30 -82 -41 -115 -11 -33 -24 -69 -29 -80 -5 -11 -20
-47 -34 -80 -33 -83 -55 -85 -85 -8 -38 97 -47 122 -102 291 -36 111 -59 168
-73 178 -15 10 -51 14 -131 13 -60 0 -116 -3 -122 -6z"/>
<path d="M8160 14678 c-19 -6 -52 -16 -73 -24 -20 -8 -51 -14 -68 -14 -27 0
-30 -3 -27 -27 3 -24 8 -29 42 -33 42 -5 44 -8 94 -170 53 -172 86 -280 103
-332 21 -65 24 -111 9 -188 -12 -63 -30 -86 -88 -111 -56 -24 -118 -24 -158 0
-34 21 -86 117 -130 241 -53 150 -114 377 -114 424 0 27 6 40 24 51 30 20 40
43 25 61 -14 17 -30 13 -163 -32 -55 -19 -112 -34 -127 -34 -30 0 -41 -16 -27
-42 5 -11 20 -18 38 -18 20 0 35 -8 50 -30 21 -29 90 -230 90 -262 0 -9 4 -27
9 -40 5 -13 21 -62 36 -110 49 -161 139 -275 237 -298 38 -10 63 -9 116 0 143
27 225 89 258 194 17 52 17 59 -1 143 -25 124 -58 251 -95 368 -17 55 -38 120
-45 144 l-14 44 40 37 c28 25 38 41 33 53 -7 19 -22 20 -74 5z"/>
<path d="M10283 14523 c-4 -11 4 -25 25 -44 32 -29 39 -47 24 -64 -7 -9 -18
-36 -69 -170 -8 -22 -21 -53 -28 -70 -7 -16 -27 -68 -45 -115 -17 -47 -44
-116 -60 -155 -16 -38 -31 -80 -35 -91 -9 -33 -36 -52 -80 -56 -32 -2 -41 -7
-43 -25 -3 -24 36 -45 153 -84 33 -11 74 -27 92 -35 70 -32 98 -2 48 52 -14
15 -23 34 -21 43 2 9 7 33 11 55 3 21 10 46 15 55 4 9 23 52 42 96 31 72 37
80 63 83 18 1 53 -10 85 -26 51 -26 55 -31 55 -62 0 -29 4 -36 23 -38 19 -3
26 6 48 54 32 72 39 109 24 119 -6 4 -21 -2 -34 -14 -12 -12 -32 -21 -44 -21
-30 0 -103 29 -128 52 l-21 19 28 82 c37 110 95 227 113 227 21 0 179 -69 195
-85 12 -12 12 -19 3 -40 -7 -14 -12 -37 -12 -51 0 -23 3 -25 38 -22 34 3 38 7
53 48 9 25 19 53 23 63 13 28 1 42 -45 56 -46 14 -69 23 -159 64 -30 13 -66
28 -80 31 -14 4 -41 13 -60 21 -186 73 -187 73 -197 48z"/>
<path d="M7109 14310 c-19 -16 -59 -41 -87 -55 -29 -14 -52 -32 -52 -39 0 -24
28 -39 60 -32 24 4 35 1 50 -17 10 -12 28 -33 40 -47 12 -14 45 -63 73 -109
29 -46 60 -95 69 -110 10 -14 24 -39 32 -56 9 -16 27 -50 41 -75 14 -25 21
-48 16 -53 -10 -10 -193 74 -487 222 -172 87 -216 102 -228 82 -3 -5 -25 -19
-48 -31 -24 -12 -51 -29 -60 -38 -36 -31 -13 -57 41 -46 29 6 33 1 174 -212
168 -256 247 -386 247 -407 0 -9 -11 -29 -25 -45 -14 -17 -25 -37 -25 -45 0
-20 29 -30 45 -17 7 6 37 24 67 39 105 55 119 65 116 86 -2 16 -12 21 -50 23
-43 3 -49 7 -85 55 -40 53 -127 198 -179 297 -15 30 -35 63 -43 73 -9 11 -11
21 -5 27 6 6 42 -6 99 -34 50 -24 140 -68 200 -96 61 -29 167 -81 237 -116 70
-35 135 -64 143 -64 25 0 72 28 79 46 4 11 -14 49 -52 108 -33 50 -103 165
-156 256 -53 91 -101 172 -106 180 -6 8 -14 24 -19 35 -5 11 -21 38 -36 59
-38 56 -43 98 -15 124 12 11 20 28 18 39 -5 30 -49 27 -89 -7z"/>
<path d="M11063 14193 c-20 -7 -15 -40 9 -73 l21 -29 -102 -168 c-56 -92 -119
-195 -141 -228 -22 -33 -43 -67 -47 -75 -13 -26 -103 -160 -109 -160 -3 0 -18
7 -34 15 -27 14 -30 14 -44 -7 -9 -12 -16 -26 -16 -30 0 -4 33 -26 73 -49 39
-23 98 -60 129 -81 66 -44 73 -45 89 -17 9 17 7 25 -10 43 -28 30 -26 60 7
110 15 22 31 48 35 56 4 8 15 27 25 42 9 15 36 57 60 95 23 37 67 106 97 153
29 47 71 113 92 147 40 66 60 76 104 52 15 -7 24 -7 35 2 25 21 15 37 -48 75
-34 21 -94 60 -132 86 -38 26 -72 48 -75 47 -3 0 -12 -3 -18 -6z"/>
<path d="M11549 13864 c-10 -13 -10 -20 4 -44 9 -15 17 -34 17 -40 0 -25 -115
-161 -329 -388 -69 -73 -129 -139 -134 -147 -10 -19 -40 -19 -79 1 -32 17 -53
8 -46 -18 6 -26 305 -304 369 -343 62 -38 67 -39 154 -40 87 0 93 2 180 45 69
34 106 61 162 118 114 115 163 217 163 341 0 125 -71 226 -285 404 -66 55
-124 106 -128 114 -11 18 -32 16 -48 -3z m236 -249 c111 -97 131 -181 72 -308
-56 -120 -133 -202 -282 -301 -74 -49 -113 -59 -170 -45 -89 23 -185 94 -185
139 0 11 92 126 176 220 36 40 195 220 263 297 25 29 50 53 55 53 5 0 37 -25
71 -55z"/>
<path d="M6139 13637 c-93 -60 -181 -154 -219 -233 -27 -58 -31 -77 -33 -163
-2 -77 2 -105 18 -141 47 -107 134 -209 235 -274 193 -125 336 -126 489 -6 54
43 191 217 191 244 0 9 -40 56 -89 104 -49 48 -92 97 -96 110 -4 13 -1 37 5
53 10 23 10 32 0 44 -19 23 -34 18 -70 -22 -19 -21 -67 -72 -107 -114 -67 -69
-72 -77 -59 -95 13 -16 18 -17 35 -6 44 26 69 15 144 -61 40 -40 78 -85 86
-100 13 -24 12 -29 -4 -47 -33 -36 -131 -90 -164 -90 -44 0 -165 44 -223 81
-131 84 -307 334 -295 420 9 65 50 131 112 182 33 26 66 47 75 47 10 0 37 -13
61 -30 47 -32 78 -37 97 -18 21 21 13 38 -40 90 -78 73 -76 73 -149 25z"/>
<path d="M9014 13513 c-20 -21 -79 -101 -131 -178 -52 -77 -105 -155 -119
-174 -30 -42 -47 -101 -47 -163 -1 -55 -6 -57 -75 -29 -114 47 -164 56 -292
55 -148 -1 -270 -18 -324 -45 -67 -35 -191 -135 -220 -179 -34 -52 -46 -143
-23 -174 26 -35 125 -34 244 3 146 45 156 44 226 -31 68 -72 146 -175 203
-266 21 -35 46 -74 54 -87 8 -13 35 -57 59 -97 64 -105 153 -221 238 -309 56
-59 73 -83 73 -105 0 -54 -11 -59 -102 -54 -194 11 -371 5 -433 -14 -77 -24
-148 -71 -217 -144 -68 -71 -114 -141 -191 -292 -85 -166 -98 -189 -141 -250
-80 -113 -162 -183 -184 -157 -23 27 -44 142 -40 213 10 156 118 270 507 538
120 82 252 215 287 289 17 37 24 70 24 114 0 74 -32 143 -131 278 -106 144
-90 132 -135 110 -60 -27 -171 -101 -216 -143 -46 -42 -118 -149 -136 -203
-24 -69 -26 -155 -7 -227 10 -37 27 -82 38 -100 30 -51 17 -89 -52 -156 -33
-31 -66 -56 -74 -56 -9 0 -25 20 -37 45 -19 39 -23 72 -31 223 -15 298 -14
328 20 469 44 186 55 307 37 416 -15 90 -42 185 -57 201 -5 6 -9 15 -9 22 0
20 -70 164 -80 164 -12 0 -64 -69 -83 -110 -40 -87 -68 -241 -63 -344 0 -16
-3 -31 -9 -32 -5 -2 -41 23 -80 57 -98 84 -168 129 -203 129 -36 0 -77 -42
-112 -114 -20 -43 -22 -58 -18 -149 9 -179 45 -239 302 -492 106 -104 205
-209 219 -232 55 -87 65 -221 31 -420 -12 -72 -24 -136 -28 -141 -12 -19 -95
-35 -138 -26 l-41 9 -42 120 c-58 166 -86 228 -129 288 -80 111 -248 203 -491
271 -71 20 -143 40 -158 45 -21 7 -29 6 -33 -4 -6 -13 11 -41 112 -183 47 -67
56 -107 27 -116 -10 -2 -93 -10 -185 -17 -191 -14 -189 -12 -140 -96 15 -26
33 -60 41 -75 25 -48 114 -140 191 -198 170 -126 384 -200 616 -215 133 -9
165 -20 242 -84 37 -31 84 -69 105 -85 20 -16 37 -32 37 -37 0 -15 -42 -103
-58 -121 -21 -25 -39 -23 -123 16 -128 59 -231 79 -409 80 -154 0 -240 -12
-340 -49 -206 -78 -285 -120 -452 -245 -163 -122 -283 -247 -347 -362 -56
-101 -95 -149 -109 -132 -4 5 -16 36 -26 69 -55 179 -165 435 -187 435 -13 0
-33 -55 -52 -145 -10 -44 -24 -109 -31 -145 -8 -36 -17 -77 -20 -92 -4 -17
-13 -28 -22 -28 -9 0 -46 33 -83 73 -163 178 -240 252 -251 241 -7 -7 -6 -40
4 -115 43 -313 87 -690 80 -700 -9 -16 -26 -10 -68 24 -60 49 -149 107 -163
107 -10 0 -13 -33 -13 -135 0 -107 -3 -137 -14 -141 -16 -6 -59 20 -165 100
-41 31 -82 56 -92 56 -15 0 -16 -4 -4 -42 39 -126 158 -475 170 -499 8 -15 15
-38 15 -50 0 -18 -4 -20 -22 -14 -78 24 -88 14 -63 -56 29 -80 46 -151 40
-170 -5 -16 -17 -19 -69 -19 -80 0 -92 -11 -75 -72 7 -24 18 -50 26 -59 7 -8
13 -18 13 -22 0 -3 20 -34 44 -69 93 -134 122 -197 97 -213 -11 -6 -88 38
-157 90 -67 52 -152 89 -169 75 -16 -13 -9 -41 32 -130 44 -97 139 -241 280
-425 21 -27 63 -83 93 -125 30 -41 101 -132 157 -203 109 -135 122 -162 76
-151 -48 11 -187 45 -207 51 -17 5 -19 1 -13 -46 6 -54 17 -81 75 -201 30 -61
56 -93 136 -171 54 -53 97 -102 94 -109 -2 -7 -47 -27 -99 -45 -116 -38 -123
-53 -52 -110 93 -74 106 -105 51 -128 -18 -8 -48 -26 -66 -42 -38 -32 -86
-110 -77 -125 4 -6 31 -8 73 -4 69 6 229 -8 317 -27 71 -16 322 -97 370 -118
59 -27 175 -76 215 -91 19 -7 49 -21 65 -31 17 -9 57 -26 91 -38 33 -11 116
-41 185 -67 276 -104 437 -136 569 -115 77 13 79 12 108 -87 32 -108 35 -128
18 -144 -13 -13 -26 -13 -113 2 -115 20 -215 58 -295 112 -31 21 -64 38 -73
38 -27 0 -37 -49 -31 -155 6 -115 16 -156 58 -243 71 -145 174 -213 333 -220
50 -2 121 1 159 6 40 7 77 7 91 2 54 -21 149 -146 214 -285 55 -115 101 -230
101 -251 0 -17 -55 -80 -85 -96 -12 -7 -37 -21 -55 -32 -18 -10 -65 -22 -104
-28 -79 -11 -120 -29 -136 -58 -10 -19 -2 -25 102 -74 144 -68 209 -97 278
-127 128 -55 321 -177 535 -341 24 -18 293 -243 349 -292 11 -10 41 -35 66
-55 25 -20 54 -44 65 -55 37 -34 280 -213 350 -259 94 -60 221 -128 304 -163
42 -17 45 -17 95 0 56 20 131 51 158 66 10 6 23 10 29 10 17 0 166 92 247 152
38 29 162 130 274 224 192 161 310 257 458 370 88 68 353 244 442 294 142 79
129 72 224 118 44 22 119 54 165 73 46 18 86 35 88 36 2 1 -4 13 -12 27 -16
24 -39 33 -171 65 -82 20 -144 51 -181 92 -19 22 -35 45 -35 53 0 17 53 143
103 243 69 140 169 269 227 293 25 10 44 10 98 0 163 -31 235 -22 335 42 41
26 137 133 137 153 0 4 6 21 14 38 44 99 62 222 46 307 -16 84 -27 89 -91 44
-90 -63 -204 -110 -298 -123 -46 -6 -86 -13 -89 -16 -3 -2 -13 0 -24 6 -17 9
-18 17 -12 72 8 67 27 121 52 150 12 14 32 17 111 17 53 0 128 7 166 15 104
21 326 87 390 114 11 5 43 17 70 26 28 10 156 59 285 110 308 122 545 201 649
216 50 7 125 9 182 6 62 -4 101 -2 105 4 7 12 -22 76 -47 105 -11 11 -42 31
-69 44 -27 13 -51 28 -54 35 -8 23 39 88 86 119 73 47 64 63 -56 101 -55 17
-101 36 -103 41 -2 5 37 51 86 102 95 99 146 169 175 242 10 25 24 59 31 76 8
18 17 48 20 68 7 33 5 36 -16 36 -13 0 -71 -13 -129 -30 -123 -34 -124 -35
-116 -15 5 14 247 334 349 462 74 93 148 193 193 260 53 78 142 259 146 294 6
52 -67 30 -185 -58 -81 -59 -137 -87 -149 -75 -11 11 12 59 87 182 65 106 91
156 99 197 9 38 -3 43 -82 42 -85 -2 -91 9 -60 123 14 51 29 100 32 109 10 23
-16 31 -54 17 -46 -16 -53 -1 -31 63 10 30 24 70 31 89 6 19 16 44 20 55 51
115 140 362 140 388 0 18 -25 23 -35 7 -4 -6 -44 -39 -90 -73 -113 -85 -124
-92 -138 -92 -19 0 -27 74 -17 172 10 93 7 123 -14 123 -13 0 -126 -78 -168
-115 -15 -14 -37 -25 -48 -25 -20 0 -21 4 -15 88 7 108 32 328 46 402 12 70
39 278 39 308 0 12 -6 22 -13 22 -15 0 -151 -138 -207 -209 -47 -59 -98 -106
-117 -106 -11 0 -21 23 -35 80 -10 44 -25 105 -33 135 -8 30 -21 84 -29 119
-9 35 -18 66 -21 69 -9 9 -21 -9 -70 -108 -25 -52 -52 -106 -59 -120 -14 -27
-72 -208 -81 -253 -10 -51 -42 -31 -87 53 -157 293 -434 514 -833 663 -121 46
-156 51 -340 51 -128 0 -189 -4 -210 -13 -16 -8 -46 -17 -65 -21 -19 -5 -60
-18 -90 -30 -30 -12 -77 -28 -104 -37 -58 -17 -60 -15 -102 71 -26 55 -22 72
23 101 15 10 60 42 98 71 101 76 130 86 275 95 121 7 163 14 280 47 189 55
353 168 468 325 47 63 106 176 97 186 -4 3 -88 13 -188 21 -145 12 -182 18
-185 30 -1 8 19 50 45 93 85 139 102 172 103 190 0 15 -5 17 -22 11 -13 -4
-36 -11 -53 -15 -16 -4 -61 -19 -100 -33 -38 -14 -80 -26 -92 -26 -12 0 -46
-9 -75 -20 -211 -81 -341 -206 -437 -420 -18 -42 -51 -154 -51 -177 0 -27 -44
-53 -88 -53 -44 0 -102 28 -111 53 -15 41 -34 272 -29 367 6 139 17 157 250
397 109 112 213 227 231 256 53 82 84 149 91 197 13 91 -34 233 -95 285 -29
23 -30 24 -82 8 -51 -15 -138 -75 -204 -142 -18 -18 -37 -30 -41 -27 -5 3 -12
45 -16 93 -16 199 -46 304 -104 371 -27 30 -31 32 -45 17 -29 -29 -75 -150
-142 -377 -23 -79 -16 -148 44 -428 27 -123 30 -484 7 -594 -17 -75 -44 -129
-67 -134 -8 -1 -41 22 -73 52 l-58 55 7 58 c4 32 13 74 21 93 18 50 34 134 34
183 -1 156 -159 349 -355 432 -65 28 -69 28 -79 11 -6 -10 -39 -62 -74 -115
-99 -151 -125 -210 -124 -281 1 -51 7 -70 38 -123 50 -83 176 -206 307 -297
272 -190 327 -238 411 -355 52 -73 66 -111 66 -182 0 -65 -27 -178 -46 -194
-11 -9 -20 -7 -39 5 -43 28 -114 107 -163 181 -47 70 -67 104 -145 249 -23 43
-48 91 -56 105 -36 66 -143 208 -173 231 -100 75 -195 95 -448 93 -113 -1
-213 0 -222 3 -12 4 -18 15 -18 37 0 26 12 44 66 97 87 85 166 189 239 318
134 235 212 348 302 443 89 93 97 95 233 52 47 -15 117 -28 157 -31 63 -3 74
-1 93 18 20 20 22 29 16 77 -8 64 -21 92 -72 152 -102 118 -304 186 -528 177
-98 -3 -222 -26 -251 -44 -11 -8 -77 -32 -86 -32 -3 0 -9 31 -13 69 -8 94 -24
127 -130 268 -50 68 -110 150 -133 182 -60 85 -73 90 -119 44z m142 -178 c38
-29 97 -144 126 -249 12 -44 21 -109 23 -174 2 -97 7 -123 21 -109 3 3 8 24
11 46 4 30 10 41 23 41 24 0 30 -28 29 -155 0 -146 -31 -302 -90 -460 -11 -31
-18 -59 -15 -62 3 -4 7 -4 9 -2 2 2 19 24 38 49 35 46 45 64 74 135 33 81 54
190 83 435 7 64 8 65 37 63 16 -1 68 7 117 17 116 26 134 25 195 -10 47 -27
103 -84 103 -105 0 -5 -35 -42 -78 -84 -77 -74 -146 -170 -232 -321 -23 -41
-57 -97 -75 -125 -18 -27 -47 -77 -65 -110 -103 -189 -158 -262 -235 -315 -56
-38 -78 -38 -109 3 -36 47 -45 124 -41 357 10 647 10 685 -3 723 -15 40 -26
47 -37 20 -3 -10 -6 -255 -6 -544 1 -351 -2 -535 -9 -556 -9 -24 -19 -32 -46
-37 -39 -8 -39 -8 -120 53 -94 71 -216 229 -315 409 -87 157 -249 382 -285
396 -8 3 -14 19 -14 40 0 47 45 98 107 121 27 9 57 23 69 30 22 14 119 45 141
45 25 0 99 -79 128 -137 16 -32 41 -105 56 -163 16 -58 35 -127 43 -155 18
-65 73 -180 93 -197 14 -12 15 -8 9 37 -4 28 -11 64 -16 80 -16 49 -50 334
-50 411 0 100 25 235 61 329 17 44 35 93 41 108 19 48 66 106 105 126 50 26
60 26 99 -4z m-848 -429 c8 -5 10 -12 5 -16 -8 -9 -300 -154 -366 -183 -47
-21 -86 -22 -93 -2 -16 41 64 135 150 176 83 38 259 53 304 25z m-727 -150
c17 -61 23 -109 23 -196 1 -103 -2 -120 -23 -157 -12 -24 -28 -43 -35 -43 -21
0 -70 146 -85 253 -12 87 4 208 34 253 l18 28 23 -29 c13 -16 33 -65 45 -109z
m3045 87 c11 -25 18 -77 22 -153 5 -122 -8 -196 -48 -286 -34 -77 -59 -54 -86
81 -19 93 -14 179 16 270 22 67 55 125 70 125 5 0 17 -17 26 -37z m-3411 -278
c120 -76 236 -290 259 -475 15 -124 15 -147 2 -166 -13 -18 -17 -16 -78 35
-103 89 -251 242 -290 301 -20 31 -51 86 -69 123 -36 79 -36 134 0 186 20 28
28 31 72 31 40 0 61 -7 104 -35z m3855 10 c19 -20 22 -34 21 -86 -3 -138 -39
-203 -213 -384 -103 -108 -217 -205 -239 -205 -13 0 -10 80 5 185 21 140 64
256 132 355 80 117 134 157 220 159 42 1 55 -3 74 -24z m-2936 -327 c22 -36
28 -119 16 -233 -12 -121 -46 -233 -90 -298 -37 -56 -109 -119 -130 -115 -22
4 -50 69 -68 157 -35 173 -14 232 141 400 56 60 105 110 109 111 4 0 14 -10
22 -22z m1959 -75 c116 -119 151 -166 173 -234 16 -49 16 -56 -1 -128 -35
-153 -60 -211 -87 -211 -5 0 -34 23 -64 52 -62 58 -116 157 -139 253 -26 107
-16 365 14 365 5 0 51 -44 104 -97z m-213 -45 c1 -93 13 -176 34 -238 14 -43
21 -79 16 -84 -22 -22 -101 104 -115 183 -6 34 -2 52 20 96 25 52 45 70 45 43z
m-1598 -39 c28 -54 23 -121 -13 -190 -32 -59 -73 -97 -84 -79 -3 5 -2 18 3 27
21 40 52 177 52 229 0 64 14 69 42 13z m-1502 -361 c200 -65 357 -237 389
-424 6 -32 13 -69 17 -81 12 -41 -23 -26 -141 62 -151 113 -267 224 -354 339
-64 85 -82 122 -66 138 7 7 74 -8 155 -34z m4715 22 c7 -11 -18 -61 -54 -110
-14 -18 -84 -91 -156 -161 -166 -162 -277 -252 -330 -265 -22 -5 -25 -3 -25
19 0 43 27 134 62 205 23 47 56 91 114 149 82 84 118 105 209 129 28 7 73 19
100 28 62 18 72 19 80 6z m-2471 -93 c85 -60 84 -69 -6 -65 l-73 3 -3 39 c-4
41 2 66 15 66 4 -1 35 -20 67 -43z m-271 -26 c134 -39 239 -120 268 -209 13
-41 6 -149 -13 -202 -42 -113 -80 -135 -249 -149 -187 -16 -232 -34 -257 -104
-12 -33 -11 -41 11 -89 46 -99 43 -109 -29 -115 -65 -6 -98 8 -129 56 -29 47
-31 82 -10 137 82 208 181 291 360 303 100 7 139 24 156 68 15 40 1 79 -45
126 -69 70 -103 82 -236 82 -110 -1 -118 -2 -182 -34 -139 -70 -199 -152 -303
-411 -57 -142 -55 -138 -101 -235 -45 -91 -132 -192 -203 -232 -25 -15 -61
-40 -80 -56 -45 -39 -75 -51 -105 -43 -33 8 -76 72 -76 113 0 30 7 37 103 100
118 78 221 177 258 248 174 337 230 428 318 516 62 62 129 104 205 130 74 25
250 25 339 0z m985 -14 c156 -54 243 -152 393 -445 38 -75 75 -146 82 -157 37
-60 75 -114 106 -149 37 -40 184 -156 198 -156 5 0 24 -13 43 -28 42 -36 44
-75 5 -125 -39 -52 -78 -51 -153 6 -32 23 -73 51 -93 60 -79 40 -163 146 -225
285 -44 97 -48 108 -67 157 -98 261 -176 371 -307 436 -58 29 -76 32 -177 37
-101 4 -116 3 -155 -18 -79 -40 -138 -110 -138 -163 0 -14 12 -38 28 -54 24
-26 40 -31 142 -47 63 -10 126 -24 140 -31 48 -25 162 -149 187 -204 21 -45
24 -66 21 -125 -5 -111 -53 -153 -147 -130 -45 11 -51 38 -21 100 27 54 23
100 -12 144 -35 44 -82 58 -219 66 -181 10 -230 37 -265 142 -20 64 -15 199
10 247 45 88 158 150 326 179 67 12 227 -3 298 -27z m-3192 -157 c119 -39 181
-59 229 -73 50 -14 154 -76 219 -130 61 -51 148 -155 141 -168 -10 -15 -172
-10 -239 7 -120 30 -224 76 -324 142 -55 36 -212 212 -212 238 0 24 88 17 186
-16z m5219 20 c13 -21 -103 -149 -211 -232 -90 -69 -218 -129 -309 -143 -22
-4 -72 -13 -112 -21 -95 -18 -142 -18 -149 1 -8 20 72 113 145 172 61 48 166
110 221 131 190 72 399 118 415 92z m-2075 -44 c134 -65 188 -140 306 -434 30
-73 67 -158 83 -190 39 -76 112 -173 158 -208 21 -15 40 -31 43 -34 3 -3 51
-38 107 -78 110 -79 173 -141 173 -172 0 -10 4 -29 9 -42 5 -13 17 -57 26 -98
22 -94 62 -174 112 -222 60 -57 126 -78 285 -88 75 -5 145 -13 156 -19 19 -10
26 -25 50 -116 13 -48 57 -117 84 -134 36 -23 42 1 19 76 l-21 68 22 18 c11
10 26 16 32 14 14 -5 255 -486 256 -509 0 -12 -8 -18 -24 -18 -19 0 -38 21
-92 101 -101 148 -112 155 -126 86 -30 -143 -150 -235 -363 -279 -48 -9 -50
-9 -71 18 -12 15 -25 37 -28 48 -31 125 -68 242 -84 268 -11 18 -55 101 -97
185 -109 216 -254 439 -359 551 -47 50 -197 198 -231 227 -46 40 -199 141
-281 186 -43 24 -74 47 -74 56 0 9 16 35 35 59 20 24 42 58 50 77 22 53 5 141
-44 231 -82 148 -179 211 -356 230 l-100 11 -9 37 c-16 64 35 112 139 128 75
11 143 1 215 -34z m-998 24 c55 -16 98 -56 98 -91 0 -49 -27 -65 -119 -73
-159 -13 -242 -64 -339 -210 -66 -99 -66 -100 -70 -182 l-4 -82 46 -50 c25
-27 46 -53 46 -59 0 -15 -51 -57 -100 -81 -172 -86 -386 -267 -546 -463 -88
-108 -136 -176 -208 -294 -49 -81 -176 -330 -176 -345 0 -5 -13 -37 -29 -72
-47 -102 -61 -139 -61 -161 0 -28 -30 -108 -48 -129 -42 -50 -222 24 -344 142
-35 34 -50 59 -63 103 -21 72 -38 74 -85 6 -125 -180 -185 -222 -145 -101 11
31 31 82 46 112 14 30 28 60 30 65 4 9 63 115 129 230 32 56 49 62 67 25 10
-21 9 -37 -5 -88 -9 -33 -13 -64 -9 -68 26 -26 109 105 123 194 4 26 14 47 25
53 10 5 95 18 188 29 184 20 217 31 284 94 49 46 70 98 97 234 12 61 28 125
36 141 21 43 91 102 224 190 122 80 194 146 222 202 33 67 85 185 103 234 10
28 22 54 27 59 4 6 8 16 8 24 0 20 76 180 108 227 65 97 127 147 217 177 57
19 172 23 227 8z m419 -396 c78 -48 173 -73 280 -74 76 0 88 -3 107 -22 44
-49 36 -105 -21 -143 -21 -14 -42 -12 -222 15 -218 33 -229 33 -440 -10 -55
-11 -114 -20 -132 -20 -44 0 -82 35 -90 83 -5 33 -2 42 22 68 27 27 33 29 109
29 45 1 106 7 136 14 58 14 152 60 171 82 15 18 13 19 80 -22z m1631 -11 c28
-26 22 -48 -28 -89 -66 -56 -80 -53 -76 16 5 84 8 90 49 90 20 0 45 -7 55 -17z
m-3270 -16 c5 -7 7 -34 6 -62 -4 -65 -19 -67 -82 -12 -44 38 -48 46 -42 71 7
28 8 28 59 22 28 -4 55 -13 59 -19z m1868 -346 c151 -34 241 -66 365 -127 50
-24 99 -50 110 -57 81 -50 153 -101 230 -162 217 -173 481 -543 615 -860 5
-11 16 -36 24 -55 20 -46 42 -110 66 -190 11 -36 24 -78 29 -95 15 -47 48
-202 65 -300 58 -348 44 -931 -29 -1185 -7 -25 -21 -74 -30 -110 -93 -339
-267 -692 -462 -933 -176 -219 -414 -415 -628 -516 -38 -19 -78 -38 -87 -42
-10 -5 -48 -18 -85 -30 -38 -11 -82 -25 -100 -30 -60 -18 -298 -49 -383 -49
-151 0 -373 43 -505 97 -101 42 -256 123 -325 169 -228 153 -440 376 -605 639
-127 203 -273 555 -320 777 -30 138 -47 233 -55 298 -4 36 -13 108 -20 160 -8
64 -10 156 -6 280 10 299 30 474 71 625 7 28 23 86 35 130 24 89 43 147 58
185 6 14 27 68 47 120 20 52 40 100 45 105 4 6 11 20 15 33 4 13 33 71 66 129
32 59 59 108 59 109 0 9 134 201 181 259 78 97 259 271 349 337 158 115 294
187 465 245 77 27 118 38 240 67 11 3 108 3 215 1 153 -2 215 -8 290 -24z
m-2300 -32 c179 -38 239 -66 326 -153 67 -68 89 -116 100 -220 10 -99 -24
-224 -72 -267 -54 -48 -188 -64 -252 -32 -48 26 -92 108 -92 175 0 25 -3 53
-6 62 -11 30 -107 16 -234 -34 -80 -31 -87 -33 -95 -21 -8 15 94 121 184 191
39 30 71 60 71 65 0 35 -177 63 -272 44 -256 -52 -530 -263 -687 -529 -20 -34
-95 -186 -111 -225 -121 -291 -188 -582 -225 -975 -21 -228 -22 -402 -2 -630
17 -204 26 -262 53 -370 8 -36 22 -94 31 -130 40 -178 66 -262 107 -354 14
-32 26 -62 26 -67 0 -26 106 -225 172 -324 150 -225 442 -504 578 -554 139
-51 219 -48 313 13 61 39 147 130 147 157 0 15 -9 18 -56 21 -52 3 -60 6 -87
40 -21 26 -31 51 -35 86 -4 44 -1 52 29 87 61 69 115 92 202 87 37 -3 122 -89
136 -139 24 -85 7 -159 -62 -278 -90 -153 -209 -237 -382 -270 -165 -32 -277
-7 -435 98 -89 59 -239 188 -331 284 -70 73 -197 237 -245 316 -16 27 -39 65
-52 85 -82 135 -174 379 -245 657 -86 336 -118 792 -82 1160 7 77 18 199 25
270 6 72 18 162 26 200 18 86 71 279 89 320 7 17 16 45 19 62 4 18 12 35 17
38 5 4 9 13 9 22 0 18 14 50 92 212 111 229 222 377 403 536 124 109 387 235
590 285 98 24 203 23 315 -1z m4344 -4 c75 -14 235 -64 273 -84 10 -5 47 -24
83 -42 357 -176 652 -560 780 -1014 12 -44 26 -93 31 -110 44 -140 109 -609
109 -781 0 -50 5 -116 11 -147 13 -71 -4 -408 -26 -512 -8 -38 -15 -101 -15
-138 0 -64 -9 -116 -46 -262 -9 -33 -22 -87 -31 -120 -8 -33 -19 -71 -25 -85
-5 -14 -20 -56 -33 -95 -70 -212 -217 -482 -351 -646 -81 -100 -238 -249 -349
-334 -182 -140 -287 -185 -429 -185 -158 0 -276 51 -384 165 -37 39 -87 107
-112 150 -44 77 -45 82 -45 165 0 75 4 90 27 127 42 65 86 93 145 93 60 0 101
-19 159 -75 40 -38 44 -46 44 -91 0 -46 -3 -51 -49 -91 -41 -35 -57 -43 -90
-43 -60 0 -54 -24 27 -106 86 -89 141 -116 236 -118 61 -1 81 4 141 32 218
103 416 294 597 577 205 319 308 633 369 1125 19 155 21 209 16 490 -2 173
-10 351 -16 395 -33 221 -86 466 -126 580 -64 183 -84 234 -135 336 -140 284
-319 479 -537 585 -54 26 -106 51 -117 56 -28 14 -196 30 -246 23 -118 -16
-139 -43 -68 -90 52 -35 208 -193 208 -211 0 -25 -56 -13 -133 27 -32 17 -105
39 -150 45 -40 6 -45 4 -50 -17 -4 -13 -7 -45 -7 -70 0 -78 -40 -143 -109
-179 -29 -15 -173 -5 -211 15 -67 35 -100 118 -100 248 0 84 3 100 31 158 17
35 40 76 50 91 27 38 144 112 209 133 136 43 312 55 444 30z m-5884 -461 c40
-70 51 -128 51 -270 0 -133 -14 -313 -27 -348 -4 -10 -18 -16 -40 -16 -41 0
-77 43 -95 113 -19 76 1 323 36 462 27 104 43 117 75 59z m7164 19 c50 -170
72 -503 39 -598 -17 -48 -19 -50 -60 -53 -39 -3 -42 -1 -52 30 -17 54 -32 353
-23 455 7 71 15 102 36 137 28 48 51 59 60 29z m361 -92 c3 -17 2 -38 -3 -48
-6 -10 -15 -120 -22 -245 -6 -124 -13 -239 -15 -255 -2 -15 -9 -82 -15 -148
-29 -312 -93 -636 -148 -742 -31 -62 -47 -34 -56 97 -47 702 -16 1009 123
1229 36 58 108 141 121 141 5 0 11 -13 15 -29z m-7850 -38 c98 -123 139 -237
175 -491 23 -164 27 -458 9 -732 -10 -163 -19 -210 -39 -210 -38 0 -140 426
-170 705 -5 50 -14 131 -20 180 -13 116 -18 188 -26 418 -8 219 -5 225 71 130z
m1682 6 c3 -14 -52 -81 -224 -270 -109 -121 -118 -140 -92 -199 10 -23 19 -51
19 -62 0 -12 -33 -54 -77 -100 -43 -44 -83 -89 -90 -101 -21 -38 -71 -199 -87
-281 -28 -136 -23 -174 34 -290 28 -55 53 -117 56 -136 4 -25 -6 -70 -36 -160
-71 -216 -83 -274 -77 -370 3 -47 12 -103 20 -125 8 -22 18 -67 21 -100 3 -33
8 -73 11 -90 3 -16 7 -44 10 -62 4 -21 23 -49 57 -82 l51 -50 -17 -58 c-27
-86 -30 -139 -13 -181 9 -21 30 -77 47 -127 39 -110 86 -222 122 -294 15 -30
26 -56 24 -59 -8 -8 -51 31 -80 72 -232 325 -355 625 -451 1101 -9 44 -21 100
-26 125 -20 95 -39 311 -39 458 0 355 64 662 191 916 69 137 114 199 216 299
106 105 206 175 299 210 106 39 127 42 131 16z m4528 -13 c110 -38 244 -133
332 -236 43 -50 142 -183 160 -215 20 -35 83 -165 83 -171 0 -3 6 -20 14 -37
27 -60 61 -191 86 -327 18 -95 30 -374 24 -535 -7 -206 -44 -492 -86 -660 -61
-249 -115 -393 -258 -685 -58 -119 -202 -320 -230 -320 -13 0 -13 37 -1 45 31
19 165 370 186 487 4 23 1 57 -10 93 -21 74 -13 108 40 167 38 43 43 53 53
130 6 46 23 135 37 198 35 153 31 243 -15 350 -56 131 -55 127 -70 245 l-9 74
39 74 c60 114 74 183 60 282 -28 194 -81 314 -187 426 -79 82 -85 99 -58 162
21 51 19 69 -12 104 -16 17 -41 48 -58 69 -38 48 -200 232 -232 262 -18 18
-21 27 -13 37 12 14 40 10 125 -19z m-5195 -354 c-1 -86 -135 -332 -181 -332
-23 0 -59 47 -59 76 0 44 208 302 232 288 4 -3 8 -17 8 -32z m5842 -61 c41
-43 87 -103 103 -133 28 -53 28 -56 13 -94 -24 -60 -47 -56 -97 13 -52 72
-118 206 -127 256 -10 61 23 49 108 -42z m-7060 -173 c84 -104 118 -186 118
-287 0 -49 -5 -72 -20 -91 l-19 -25 -29 28 c-16 15 -50 70 -77 121 -39 77 -48
105 -52 163 -4 52 -1 77 11 101 9 18 20 32 25 32 5 0 24 -19 43 -42z m8241 1
c14 -54 2 -170 -24 -220 -37 -74 -110 -179 -124 -179 -28 0 -39 32 -39 113 0
73 4 90 36 159 36 76 112 172 132 165 5 -2 14 -19 19 -38z m-8363 -307 c125
-129 219 -265 316 -457 107 -213 146 -340 184 -598 23 -157 25 -193 9 -203
-31 -19 -194 226 -272 406 -41 94 -101 239 -113 272 -7 20 -24 60 -37 90 -14
29 -60 143 -102 253 -42 110 -83 215 -91 233 -22 52 -29 112 -13 112 8 0 61
-48 119 -108z m8550 85 c0 -12 -6 -31 -13 -42 -8 -11 -37 -85 -66 -165 -29
-80 -57 -154 -62 -165 -5 -11 -18 -47 -29 -80 -32 -91 -93 -246 -126 -320 -7
-16 -27 -61 -44 -100 -17 -38 -35 -77 -40 -85 -5 -8 -21 -37 -36 -65 -67 -126
-208 -320 -224 -310 -10 6 -5 116 11 220 60 399 263 810 523 1057 44 43 87 78
94 78 6 0 12 -10 12 -23z m-1910 -119 c80 -87 130 -248 130 -420 l0 -117 -42
-34 c-24 -20 -73 -51 -109 -70 -36 -18 -72 -38 -80 -43 -16 -10 -48 -22 -134
-51 -243 -82 -245 -81 -245 105 -1 75 -7 151 -15 187 -28 114 -21 151 45 249
60 89 172 164 305 205 89 28 110 26 145 -11z m-4678 -9 c113 -39 253 -151 293
-236 19 -39 15 -126 -11 -282 -8 -46 -14 -124 -14 -172 l0 -89 -40 0 c-35 0
-89 16 -170 51 -47 21 -85 36 -130 55 -68 27 -170 84 -214 117 l-38 31 7 120
c9 174 40 287 104 385 l35 53 57 -6 c32 -3 86 -15 121 -27z m-2030 -582 c39
-21 82 -51 103 -72 43 -43 100 -139 121 -203 34 -107 19 -116 -85 -47 -136 90
-207 171 -232 266 -17 64 -8 83 36 75 19 -4 44 -12 57 -19z m8655 -12 c-13
-82 -112 -221 -203 -286 -73 -52 -124 -80 -135 -74 -40 25 50 222 136 298 60
52 139 97 172 97 35 0 36 -1 30 -35z m-6732 -179 c102 -19 151 -36 217 -79
131 -84 166 -147 183 -330 7 -73 17 -150 23 -172 6 -22 12 -65 14 -95 l3 -55
-110 2 c-127 3 -302 26 -362 47 -101 35 -109 45 -154 176 -47 138 -26 431 35
499 23 25 44 26 151 7z m4858 -4 c76 -84 77 -390 1 -587 -19 -50 -51 -71 -149
-97 -130 -35 -185 -42 -320 -43 l-140 0 1 40 c2 88 35 342 50 379 18 46 85
149 128 194 64 69 173 104 402 131 6 0 18 -7 27 -17z m-6815 -239 c74 -49 380
-358 494 -498 110 -136 205 -277 253 -375 20 -41 41 -83 46 -92 13 -24 11 -58
-2 -58 -15 0 -154 118 -244 206 -103 101 -259 285 -336 396 -27 38 -204 303
-236 354 -44 67 -56 104 -36 104 3 0 30 -17 61 -37z m8651 -66 c-74 -124 -281
-420 -319 -457 -3 -3 -40 -45 -82 -95 -71 -83 -266 -279 -366 -367 -78 -70
-93 -44 -37 64 79 154 146 259 264 413 104 136 499 514 559 536 31 11 24 -21
-19 -94z m-7263 -374 c8 -21 25 -65 36 -98 11 -33 26 -73 33 -90 6 -16 27 -68
45 -115 62 -161 82 -203 152 -319 21 -36 37 -70 34 -77 -7 -17 -87 -51 -140
-59 -51 -8 -110 14 -187 70 -76 56 -130 139 -188 289 -34 86 -38 121 -17 145
17 19 106 151 106 156 0 6 61 97 78 118 22 25 30 21 48 -20z m5895 27 c10 -6
19 -15 19 -21 0 -5 24 -47 54 -93 30 -45 69 -109 87 -141 l32 -57 -13 -67
c-12 -63 -23 -94 -59 -170 -23 -48 -136 -162 -201 -202 -46 -29 -64 -34 -110
-32 -58 1 -147 34 -156 58 -3 8 9 40 28 72 81 140 233 490 283 651 5 15 11 15
36 2z m-4976 -266 c120 -67 204 -150 235 -233 45 -122 142 -314 230 -456 19
-31 39 -65 45 -76 5 -10 13 -19 17 -19 3 0 17 -17 29 -37 71 -116 320 -371
465 -474 89 -64 121 -84 215 -133 36 -19 70 -41 77 -48 9 -11 7 -44 -7 -142
-10 -70 -23 -132 -29 -138 -20 -20 -113 12 -227 76 -138 78 -190 94 -248 75
-105 -33 -152 -83 -234 -247 -30 -62 -60 -115 -66 -119 -13 -8 -63 50 -87 102
-20 42 -44 138 -55 215 -11 71 -37 172 -53 205 -8 17 -46 63 -83 103 -38 39
-69 76 -69 80 0 5 54 60 120 123 169 159 237 254 232 322 -1 16 -28 69 -60
118 -31 48 -73 113 -92 144 l-35 56 -100 -8 c-55 -4 -185 -7 -288 -6 -210 1
-222 5 -256 71 -45 90 -56 234 -26 339 32 110 88 143 235 138 50 -2 77 -9 115
-31z m4277 -1 c59 -40 78 -70 91 -146 17 -102 -19 -281 -69 -344 l-22 -28
-199 2 c-109 1 -238 7 -287 12 -79 9 -92 9 -108 -6 -36 -32 -192 -305 -190
-331 2 -21 35 -88 52 -102 3 -3 24 -28 46 -56 22 -29 80 -87 130 -129 107 -92
124 -111 124 -137 0 -11 -29 -50 -64 -86 -85 -89 -106 -134 -126 -267 -28
-180 -64 -289 -113 -333 -20 -19 -29 -22 -45 -13 -12 6 -24 21 -28 33 -16 55
-88 187 -123 228 -22 26 -64 58 -95 74 -50 25 -63 28 -112 22 -59 -7 -96 -23
-201 -87 -36 -22 -94 -48 -130 -57 -63 -17 -65 -16 -79 2 -8 11 -14 40 -14 64
0 24 -10 78 -22 119 -24 83 -21 96 28 122 16 9 48 29 71 44 24 15 45 27 48 27
7 0 131 85 187 129 68 53 308 296 360 366 96 128 175 257 263 430 102 201 122
234 192 320 50 62 151 137 206 155 18 5 67 7 110 5 64 -4 85 -9 119 -32z
m-6327 -108 c91 -28 139 -58 216 -134 55 -55 85 -96 112 -151 42 -84 43 -92
22 -110 -12 -10 -31 -6 -101 21 -89 35 -174 100 -251 191 -36 43 -83 137 -83
166 0 36 12 39 85 17z m8179 0 c7 -19 -3 -72 -20 -107 -49 -97 -132 -181 -224
-228 -49 -25 -150 -60 -172 -60 -29 0 22 144 73 206 101 120 142 149 247 174
28 6 55 16 58 21 8 14 31 11 38 -6z m-7889 -530 c91 -23 162 -64 211 -120 42
-48 58 -95 32 -95 -20 0 -159 36 -203 53 -76 28 -130 62 -183 114 -31 31 -50
58 -46 64 9 14 105 6 189 -16z m7725 16 c0 -25 -118 -123 -185 -155 -22 -10
-47 -22 -57 -27 -9 -4 -55 -17 -103 -29 -97 -23 -117 -19 -98 23 40 88 155
159 308 191 38 7 135 6 135 -3z m-5851 -736 c39 -50 54 -187 24 -231 -26 -41
-148 -90 -204 -82 -23 3 -24 8 -31 103 -4 56 -14 111 -22 125 -8 14 -12 31 -8
37 11 17 154 72 189 72 22 1 37 -6 52 -24z m3943 -12 c52 -25 78 -43 78 -55 0
-9 -4 -19 -9 -22 -9 -6 -16 -46 -26 -146 -9 -90 -11 -93 -56 -86 -40 6 -128
53 -166 88 -48 44 -36 187 19 234 40 33 69 30 160 -13z m-1483 -162 c22 -22
41 -101 41 -174 0 -124 32 -161 139 -161 71 1 114 16 218 79 105 64 205 84
265 54 38 -20 142 -222 155 -302 7 -46 -11 -67 -59 -67 -33 0 -48 28 -48 92 0
55 -34 122 -77 155 -29 23 -45 27 -100 27 -59 0 -74 -5 -174 -57 -194 -101
-246 -114 -327 -77 -38 17 -124 89 -174 145 -103 117 -137 179 -122 219 3 8
31 23 62 32 32 8 82 24 112 34 69 24 66 24 89 1z m-1034 -21 c39 -11 84 -23
100 -26 61 -13 69 -41 34 -114 -21 -43 -156 -186 -214 -227 -39 -27 -127 -53
-180 -53 -30 0 -67 13 -131 46 -194 101 -186 98 -251 98 -51 0 -67 -5 -97 -28
-47 -36 -72 -86 -80 -166 -8 -78 -14 -86 -62 -74 -47 11 -62 34 -46 66 6 13
21 50 33 83 11 33 30 79 40 103 22 48 91 128 119 137 26 8 99 -19 245 -93 122
-61 134 -65 201 -66 57 -1 76 3 93 18 28 25 48 96 54 187 6 87 29 144 55 135
9 -3 49 -14 87 -26z m648 -94 c-4 -55 -11 -57 -191 -54 l-165 3 -10 28 c-17
51 -14 52 184 51 l184 -1 -2 -27z m-1909 -96 c32 -183 42 -209 98 -263 57 -55
57 -39 1 -214 -47 -150 -57 -157 -102 -73 -65 120 -156 227 -218 257 -25 12
-49 14 -101 9 -189 -18 -292 -19 -340 -1 -71 27 -127 77 -162 147 -42 81 -72
180 -60 192 6 6 35 -2 77 -21 148 -66 235 -86 378 -86 158 0 215 18 307 99 40
35 80 63 88 61 11 -2 20 -32 34 -107z m3518 77 c18 -12 57 -41 86 -64 72 -57
113 -67 262 -66 95 1 143 6 200 23 41 11 95 27 120 33 25 7 65 23 89 36 55 29
66 19 50 -45 -28 -115 -98 -218 -183 -268 -51 -30 -100 -32 -301 -16 -205 18
-233 -1 -370 -238 -54 -94 -69 -100 -98 -38 -19 40 -44 145 -53 226 -6 42 -3
48 38 90 52 55 74 115 83 230 7 84 17 120 35 120 5 0 24 -10 42 -23z m-1614
-189 c25 -13 50 -30 56 -39 7 -12 -12 -59 -77 -190 -47 -96 -99 -204 -116
-241 -32 -72 -55 -86 -70 -45 -18 46 -153 320 -187 377 -44 76 -44 92 5 113
44 20 123 44 166 50 67 11 176 -1 223 -25z m-1197 -133 c90 -50 155 -79 222
-100 57 -18 81 -40 60 -54 -6 -3 -21 -28 -33 -56 -53 -116 -160 -331 -173
-350 -15 -19 -17 -18 -69 37 -92 98 -148 236 -148 362 0 61 19 160 37 189 9
15 42 6 104 -28z m2154 -17 c30 -64 33 -148 9 -264 -17 -83 -30 -113 -78 -179
-63 -86 -146 -136 -146 -87 0 10 -43 105 -96 212 -67 136 -93 199 -87 209 5 7
41 22 81 32 74 20 164 63 217 104 50 39 72 33 100 -27z m-739 -13 c52 -56 94
-143 94 -195 0 -37 -3 -40 -61 -75 -78 -48 -171 -134 -214 -199 -38 -59 -70
-150 -80 -229 -8 -66 0 -97 25 -97 39 0 51 14 71 84 38 126 84 203 174 294 45
45 90 82 98 82 34 0 49 -44 48 -140 0 -86 -2 -93 -33 -139 -33 -48 -178 -190
-214 -209 -26 -14 -82 -125 -94 -187 -19 -97 -23 -106 -40 -115 -10 -5 -85
-12 -166 -16 -118 -5 -153 -3 -167 8 -10 7 -26 47 -37 90 -31 123 -63 168
-230 322 -52 48 -102 114 -116 155 -25 68 -13 193 21 221 12 10 20 9 40 -4 37
-24 109 -99 143 -148 34 -50 87 -161 98 -204 18 -73 60 -118 90 -93 12 9 14
26 9 68 -18 170 -97 311 -229 408 -34 25 -68 48 -76 51 -29 10 -60 46 -60 69
0 59 120 234 160 233 36 -1 215 -299 233 -386 3 -16 13 -58 21 -94 22 -94 39
-248 32 -292 -5 -30 -3 -39 13 -48 28 -14 63 -12 89 6 20 14 22 23 22 122 0
109 4 130 68 342 26 88 71 182 125 260 41 58 78 100 91 100 5 0 29 -20 52 -45z
m-1673 -203 c9 -8 17 -25 17 -37 0 -37 74 -169 141 -252 34 -43 66 -83 70 -88
5 -6 -4 -35 -19 -65 -51 -104 -30 -268 61 -470 24 -53 81 -135 146 -210 27
-31 40 -60 26 -60 -12 0 -65 27 -112 57 -62 41 -110 112 -187 278 -84 180
-116 239 -166 298 -74 89 -165 145 -240 147 -50 1 -105 31 -103 55 1 16 37
124 76 225 3 8 16 45 28 82 l23 66 111 -5 c78 -4 115 -10 128 -21z m2796 6 c9
-26 13 -36 77 -227 52 -154 53 -151 -41 -171 -179 -38 -281 -132 -378 -350
-25 -57 -117 -243 -130 -265 -30 -50 -73 -97 -116 -128 -70 -51 -91 -61 -104
-48 -12 12 9 47 69 111 72 77 156 256 183 388 19 95 8 203 -28 271 -11 20 -7
30 42 94 76 101 157 245 157 280 0 7 6 22 14 33 12 16 31 20 108 25 51 3 103
6 116 7 15 1 25 -5 31 -20z m-3012 -527 c112 -84 145 -123 183 -221 18 -46 46
-106 61 -133 16 -26 29 -50 29 -53 0 -9 124 -169 151 -194 116 -109 180 -161
243 -195 86 -47 106 -63 106 -81 0 -22 -22 -17 -96 22 -115 61 -221 138 -368
267 -123 109 -298 247 -312 247 -4 0 -15 6 -23 14 -23 20 -127 75 -185 97 -28
11 -60 24 -71 29 -11 5 -32 14 -47 20 -51 18 -36 45 46 84 71 34 116 74 116
102 0 17 48 54 70 54 10 0 54 -26 97 -59z m3111 50 c10 -5 37 -37 61 -70 36
-49 57 -67 107 -91 60 -28 86 -56 61 -65 -6 -2 -41 -14 -77 -26 -83 -28 -206
-93 -295 -155 -80 -56 -85 -60 -174 -135 -146 -123 -293 -239 -357 -281 -94
-62 -200 -118 -224 -118 -51 0 4 54 113 111 43 22 92 53 110 68 18 15 52 41
77 58 25 17 64 51 86 75 39 42 114 159 114 178 0 5 14 40 31 77 101 219 137
268 254 349 50 34 82 41 113 25z m-2171 -103 c88 -35 137 -91 221 -252 l72
-139 -72 -134 c-81 -149 -88 -154 -162 -109 -65 41 -162 195 -191 307 -22 83
-17 254 9 312 20 45 40 47 123 15z m1204 6 c15 -18 49 -171 49 -223 0 -132
-91 -320 -194 -397 -67 -50 -86 -58 -102 -42 -25 26 -134 252 -134 278 0 39
69 172 132 255 43 56 67 77 123 107 77 41 106 46 126 22z m-731 -500 c9 -10
15 -58 17 -144 3 -116 2 -129 -14 -134 -10 -3 -41 -32 -70 -64 -85 -97 -230
-157 -363 -150 -58 3 -65 5 -68 25 -3 17 10 28 68 59 99 52 155 118 231 273
35 69 67 132 72 139 14 18 111 16 127 -4z m263 1 c37 -15 67 -49 67 -74 0 -29
89 -196 122 -232 45 -46 97 -86 150 -112 46 -23 58 -48 37 -74 -11 -12 -26
-14 -84 -9 -151 14 -269 79 -382 209 l-33 38 0 122 c0 82 4 127 12 135 16 16
68 15 111 -3z m-123 -400 c17 -9 30 -21 30 -28 1 -6 9 -30 20 -52 11 -22 19
-58 20 -81 0 -35 -5 -46 -41 -78 -23 -20 -50 -41 -61 -47 -25 -14 -72 2 -118
41 -32 26 -35 33 -34 82 2 69 20 134 45 159 24 24 97 26 139 4z"/>
<path d="M8845 10605 c-22 -8 -55 -15 -72 -15 -18 0 -50 -6 -70 -13 -21 -8
-63 -22 -93 -31 -165 -53 -369 -166 -510 -283 -85 -69 -226 -218 -293 -308
-37 -50 -71 -95 -77 -102 -5 -7 -10 -14 -10 -17 0 -3 -12 -24 -27 -48 -44 -67
-50 -79 -79 -138 -15 -30 -31 -58 -35 -61 -5 -3 -10 -18 -11 -33 -2 -16 -8
-31 -15 -33 -7 -3 -13 -18 -13 -33 0 -15 -6 -30 -14 -33 -16 -6 -27 -55 -15
-63 5 -3 14 7 19 23 12 31 38 90 52 113 4 8 11 22 14 30 3 8 10 22 15 30 5 8
12 22 15 30 3 8 10 22 15 30 5 8 12 22 16 30 14 32 100 159 168 250 92 120
262 285 385 372 52 37 149 94 215 127 152 76 254 110 440 148 17 4 119 7 227
7 190 1 224 7 142 27 -65 14 -343 10 -389 -6z"/>
<path d="M9317 10584 c-10 -11 3 -24 24 -24 21 0 125 -33 176 -56 17 -8 34
-14 38 -14 10 0 174 -83 234 -119 73 -43 159 -109 254 -194 86 -77 116 -83 46
-10 -152 159 -382 309 -569 371 -164 55 -189 60 -203 46z"/>
<path d="M10140 10093 c0 -7 5 -13 10 -13 6 0 10 -5 10 -11 0 -13 78 -94 84
-88 2 2 -20 31 -50 64 -29 33 -54 54 -54 48z"/>
<path d="M9053 9978 c-5 -7 -22 -49 -36 -93 -14 -44 -42 -125 -62 -180 -20
-55 -42 -118 -49 -140 -8 -22 -35 -98 -61 -170 -25 -71 -51 -143 -57 -160 -6
-16 -15 -34 -19 -39 -5 -6 -9 -16 -9 -24 0 -8 -6 -28 -14 -45 -7 -18 -35 -86
-62 -152 l-49 -120 -598 -3 c-374 -1 -597 -6 -597 -12 0 -5 34 -33 76 -61 43
-28 127 -88 188 -132 357 -260 443 -321 559 -401 71 -49 131 -94 133 -101 3
-7 1 -28 -5 -47 -16 -54 -61 -182 -69 -198 -5 -8 -19 -49 -32 -90 -24 -79 -79
-250 -148 -460 -40 -121 -78 -227 -121 -339 -11 -30 -18 -57 -16 -59 5 -5 75
40 210 135 39 27 108 77 155 109 47 33 108 76 135 95 94 66 220 153 476 327
42 29 82 52 90 52 17 0 85 -45 464 -307 304 -210 598 -403 614 -403 13 0 15
36 2 44 -4 3 -18 34 -30 68 -12 35 -28 79 -36 98 -42 106 -72 188 -112 300
-83 233 -164 465 -200 570 l-35 105 32 26 c17 15 57 44 88 65 55 37 315 232
431 323 120 93 336 253 348 258 7 3 13 11 13 17 0 10 -130 14 -576 19 -521 6
-579 8 -595 23 -11 10 -19 21 -19 27 0 5 -6 23 -14 40 -8 18 -24 59 -35 92
-12 33 -26 69 -31 80 -5 11 -27 74 -49 140 -23 66 -64 185 -92 265 -28 80 -54
159 -59 175 -4 17 -25 75 -45 130 -20 55 -40 113 -44 129 -7 33 -23 43 -38 24z
m-17 -951 c7 -513 6 -567 -9 -567 -8 0 -46 39 -83 88 -37 48 -97 122 -132 165
-60 72 -64 80 -57 113 3 20 10 44 15 53 5 9 18 48 31 86 12 39 25 79 30 90 25
60 169 506 169 522 0 24 11 36 22 25 4 -4 11 -263 14 -575z m-674 -277 l346 0
53 -72 c28 -39 85 -109 125 -154 68 -76 86 -104 67 -104 -11 1 -140 36 -178
49 -119 40 -438 138 -575 176 -185 51 -280 84 -280 95 0 14 23 20 60 15 19 -3
191 -5 382 -5z m1832 4 c18 -7 22 -24 5 -24 -6 0 -25 -6 -42 -14 -46 -20 -342
-113 -512 -160 -33 -10 -78 -23 -100 -30 -22 -8 -69 -21 -105 -31 -36 -9 -80
-23 -98 -31 -18 -8 -43 -14 -55 -14 -12 -1 -33 -7 -47 -15 -26 -15 -80 -20
-80 -7 0 4 12 21 26 37 14 17 65 81 112 143 48 63 92 120 98 128 9 11 78 14
375 17 200 1 374 3 386 5 12 1 28 -1 37 -4z m-1234 -476 c0 -7 -14 -29 -30
-48 -17 -19 -77 -95 -133 -168 -354 -462 -420 -547 -491 -630 -70 -83 -96
-102 -96 -70 0 17 100 291 140 383 21 47 120 300 144 367 19 53 24 57 70 68
113 28 269 72 316 88 68 24 80 25 80 10z m259 1 c20 -7 52 -17 71 -24 19 -7
69 -23 110 -35 41 -12 86 -25 100 -30 14 -4 44 -13 66 -19 32 -9 45 -19 58
-45 9 -19 16 -39 16 -46 0 -7 6 -26 13 -43 8 -18 29 -70 46 -117 33 -84 91
-227 116 -285 25 -56 95 -263 95 -279 0 -34 -32 -12 -92 64 -19 25 -76 99
-126 165 -50 66 -122 161 -161 210 -40 50 -84 106 -99 125 -15 19 -77 98 -138
175 -158 200 -163 212 -75 184z"/>
<path d="M10291 9915 c16 -37 33 -65 41 -65 15 0 8 19 -18 47 -15 15 -25 24
-23 18z"/>
<path d="M10350 9831 c0 -14 34 -71 43 -71 13 0 7 28 -8 34 -8 3 -15 12 -15
20 0 8 -4 18 -10 21 -5 3 -10 2 -10 -4z"/>
<path d="M10410 9736 c0 -8 10 -32 22 -53 18 -29 24 -34 26 -20 2 10 -3 26
-12 36 -9 10 -16 23 -16 29 0 6 -4 14 -10 17 -5 3 -10 -1 -10 -9z"/>
<path d="M10460 9635 c0 -3 13 -31 29 -62 40 -77 71 -149 71 -163 0 -10 4 -19
33 -78 9 -19 17 -40 17 -49 0 -8 6 -29 14 -46 8 -18 19 -52 26 -77 6 -25 18
-70 26 -100 23 -82 42 -183 59 -300 8 -57 17 -112 20 -121 3 -9 7 -141 8 -293
1 -179 5 -275 12 -273 26 9 32 362 10 562 -9 77 -22 169 -31 205 -8 36 -14 74
-14 86 0 19 -20 102 -54 219 -21 73 -57 176 -81 230 -7 17 -23 55 -35 85 -12
30 -28 62 -36 71 -8 8 -14 19 -14 24 0 20 -36 85 -47 85 -7 0 -13 -2 -13 -5z"/>
<path d="M7488 9374 c-5 -4 -8 -21 -8 -38 0 -21 3 -27 11 -19 6 6 9 23 7 38
-2 15 -6 23 -10 19z"/>
<path d="M7447 9268 c-3 -12 -2 -29 3 -37 7 -13 11 -11 19 12 11 28 8 47 -8
47 -5 0 -11 -10 -14 -22z"/>
<path d="M7427 9193 c-11 -10 -8 -73 3 -73 6 0 10 18 10 40 0 41 -2 45 -13 33z"/>
<path d="M7384 9055 c-7 -30 2 -59 16 -50 13 8 13 75 0 75 -5 0 -12 -11 -16
-25z"/>
<path d="M7362 8937 c-7 -16 -12 -49 -12 -73 0 -25 -5 -54 -10 -65 -6 -10 -20
-88 -31 -172 -16 -120 -19 -179 -14 -282 3 -71 10 -134 14 -138 9 -9 21 144
21 258 0 39 7 119 14 178 8 60 13 114 10 122 -3 7 2 35 11 62 9 28 15 70 13
94 l-4 44 -12 -28z"/>
<path d="M7321 8144 c0 -11 3 -14 6 -6 3 7 2 16 -1 19 -3 4 -6 -2 -5 -13z"/>
<path d="M7327 8083 c-9 -8 -8 -96 1 -148 11 -60 28 -39 24 30 -7 110 -11 132
-25 118z"/>
<path d="M10746 7989 c-9 -46 -7 -119 3 -119 16 0 24 130 9 145 -3 3 -8 -9
-12 -26z"/>
<path d="M7346 7872 c-7 -11 10 -132 23 -165 6 -16 11 -41 11 -56 0 -15 6 -47
14 -72 7 -24 21 -71 31 -104 21 -73 43 -140 60 -180 7 -16 23 -55 35 -85 32
-80 124 -256 165 -318 19 -30 35 -56 35 -59 0 -8 89 -122 153 -198 71 -83 150
-159 232 -223 33 -25 62 -49 65 -52 18 -20 179 -117 259 -156 154 -75 197 -91
271 -105 25 -4 68 -14 96 -20 55 -13 101 -6 74 11 -8 6 -35 10 -58 10 -24 0
-56 6 -70 14 -15 8 -61 24 -102 36 -84 24 -84 24 -195 76 -173 80 -401 255
-535 410 -63 73 -137 176 -202 282 -52 84 -168 315 -168 334 0 7 -6 22 -14 33
-7 11 -16 31 -19 45 -3 14 -15 52 -27 85 -37 101 -103 383 -110 463 0 6 -19 1
-24 -6z"/>
<path d="M10717 7780 c-10 -37 -8 -80 3 -80 15 0 23 46 13 77 l-9 27 -7 -24z"/>
<path d="M10686 7643 c-9 -10 -7 -73 3 -73 18 0 29 64 12 74 -4 3 -11 3 -15
-1z"/>
<path d="M10656 7524 c-3 -9 -6 -30 -6 -47 1 -30 1 -31 15 -13 17 22 20 62 6
70 -5 3 -12 -1 -15 -10z"/>
<path d="M10627 7433 c-4 -3 -7 -21 -7 -38 0 -18 -7 -38 -15 -45 -8 -7 -15
-23 -15 -35 0 -12 -7 -28 -15 -35 -8 -7 -15 -25 -15 -41 0 -16 -4 -29 -8 -29
-5 0 -26 -35 -47 -77 -55 -114 -184 -325 -215 -353 -3 -3 -21 -25 -40 -50
-123 -160 -371 -385 -505 -457 -88 -48 -164 -83 -179 -83 -7 0 -19 -6 -26 -14
-6 -8 -23 -16 -37 -18 -28 -3 -45 -28 -19 -28 8 0 32 7 53 16 21 9 52 22 68
29 126 52 256 128 348 203 158 128 392 405 487 574 49 90 120 232 120 243 0 7
7 18 15 25 8 7 15 22 15 34 0 11 7 30 15 40 8 11 15 29 15 40 0 12 7 30 15 40
24 32 17 84 -8 59z"/>
<path d="M9365 6121 c-3 -5 -1 -13 5 -16 14 -9 70 4 70 16 0 12 -67 12 -75 0z"/>
<path d="M9210 6090 c-11 -7 0 -10 37 -10 28 0 55 5 58 10 8 13 -75 13 -95 0z"/>
<path d="M12333 13123 c-16 -6 -17 -37 -2 -64 5 -11 8 -27 4 -37 -3 -9 -55
-53 -115 -97 -60 -44 -190 -139 -287 -212 -98 -73 -185 -133 -194 -133 -9 0
-24 9 -34 20 -25 28 -55 26 -55 -3 0 -27 94 -174 171 -268 30 -37 79 -99 109
-138 30 -39 59 -71 65 -71 5 0 33 17 60 38 40 30 50 44 50 67 0 37 -31 45 -71
18 l-27 -17 -67 71 c-64 68 -87 114 -74 145 11 30 246 198 275 198 16 0 99
-103 99 -124 0 -6 -9 -24 -19 -40 -19 -28 -18 -56 1 -56 5 0 42 21 83 48 53
34 74 53 74 68 1 27 -24 38 -51 23 -16 -9 -26 -7 -47 8 -41 31 -84 98 -77 120
5 15 138 119 242 188 12 8 20 3 37 -20 12 -16 43 -54 70 -83 26 -29 47 -56 47
-61 0 -5 -13 -21 -30 -34 -31 -27 -39 -64 -18 -85 18 -18 43 -15 64 9 10 12
31 27 46 35 36 19 36 46 -1 93 -15 20 -44 60 -64 88 -21 29 -44 61 -52 70 -8
10 -51 65 -96 123 -84 109 -96 120 -116 113z"/>
<path d="M5509 12928 c-23 -35 -65 -92 -92 -127 l-51 -64 23 -18 c23 -19 24
-19 53 6 25 21 33 23 51 14 50 -26 193 -128 377 -267 l195 -148 0 -45 c0 -44
9 -69 24 -69 27 0 191 231 191 269 0 28 -40 29 -58 1 -20 -33 -49 -23 -150 50
-138 99 -253 182 -357 255 -132 93 -129 88 -121 151 6 52 5 54 -18 54 -19 0
-34 -15 -67 -62z"/>
<path d="M5168 12423 c-89 -113 -113 -162 -112 -225 1 -77 43 -161 104 -206
l44 -34 116 4 c98 3 121 7 155 27 164 96 228 110 298 66 49 -31 84 -76 93
-121 4 -23 -2 -40 -28 -78 -49 -71 -73 -83 -141 -66 -65 15 -87 9 -87 -23 0
-30 20 -48 94 -82 l60 -28 44 48 c105 116 132 178 132 302 l0 84 -56 59 c-67
71 -104 90 -184 94 -74 5 -121 -9 -237 -67 -123 -62 -148 -70 -189 -64 -40 7
-120 67 -136 102 -15 34 30 128 72 150 33 17 50 14 118 -18 28 -13 42 -1 45
38 2 24 -5 31 -58 61 -33 18 -69 33 -81 34 -14 0 -36 -19 -66 -57z"/>
<path d="M12806 12418 c-9 -12 -13 -31 -11 -42 3 -12 2 -26 -2 -31 -9 -12
-135 -96 -175 -116 -15 -8 -61 -34 -104 -57 -42 -24 -97 -55 -123 -69 -248
-135 -234 -130 -277 -92 -17 16 -23 17 -39 5 -18 -13 -18 -15 -2 -47 9 -19 44
-82 79 -141 64 -109 90 -130 96 -78 6 57 14 68 79 112 76 51 201 128 208 128
3 0 24 12 48 27 23 15 56 34 72 43 76 41 172 94 190 107 28 19 59 16 80 -7 24
-26 59 -22 63 7 2 12 -8 39 -21 60 -13 21 -41 70 -61 108 -39 72 -63 105 -77
105 -4 0 -15 -10 -23 -22z"/>
<path d="M2355 13345 c-44 -16 -83 -56 -127 -130 -16 -27 -34 -57 -40 -66 -14
-20 -5 -47 18 -56 9 -3 67 -39 128 -80 99 -66 151 -93 160 -82 32 43 98 168
111 211 14 51 15 60 1 86 -20 40 -69 79 -132 108 -61 28 -65 28 -119 9z"/>
<path d="M1272 10263 c-52 -13 -74 -26 -116 -67 -61 -59 -94 -138 -82 -198 14
-75 95 -159 191 -198 17 -7 39 -16 50 -21 19 -8 66 -19 170 -41 64 -13 185 -4
250 18 133 46 189 116 190 236 0 59 -3 70 -31 105 -53 66 -157 130 -259 159
-81 23 -288 27 -363 7z"/>
<path d="M4318 3478 c-117 -140 -124 -155 -85 -181 13 -8 48 -38 77 -66 110
-102 177 -103 251 -6 60 80 51 126 -43 205 -82 71 -123 100 -140 100 -9 0 -35
-24 -60 -52z"/>
<path d="M3966 3044 c-53 -64 -96 -121 -96 -128 0 -16 157 -154 202 -178 87
-47 185 8 234 131 30 75 -6 137 -131 222 -27 19 -58 42 -69 52 -11 9 -25 17
-32 17 -6 0 -55 -52 -108 -116z"/>
<path d="M9945 1922 c-85 -30 -136 -102 -162 -225 -15 -75 -16 -98 -5 -179 22
-173 55 -265 125 -344 56 -63 114 -88 189 -80 34 3 75 15 94 27 39 24 85 80
104 129 19 46 19 304 1 380 -49 202 -123 287 -259 295 -37 2 -76 1 -87 -3z"/>
<path d="M7966 1762 c-13 -21 -29 -54 -34 -73 -8 -28 -43 -109 -104 -245 -22
-47 -9 -58 87 -72 139 -20 130 -21 133 17 2 18 -3 77 -12 130 -8 53 -18 135
-22 184 -3 48 -10 90 -15 93 -4 2 -19 -13 -33 -34z"/>
</g>
</svg>
